<svg width="120" height="39" viewBox="0 0 120 39" fill="none" xmlns="http://www.w3.org/2000/svg">
<g clip-path="url(#clip0_79_9868)">
<g clip-path="url(#clip1_79_9868)">
<g clip-path="url(#clip2_79_9868)">
<path d="M110.88 -0.00585938H9.12039C4.08334 -0.00585938 0 4.07748 0 9.11453V29.076C0 34.1131 4.08334 38.1964 9.12039 38.1964H110.88C115.917 38.1964 120 34.1131 120 29.076V9.11453C120 4.07748 115.917 -0.00585938 110.88 -0.00585938Z" fill="black"/>
<g opacity="0.58">
<path d="M40.2027 7.37571C40.63 7.5895 40.9836 7.92617 41.2181 8.34247C41.4665 8.79008 41.5904 9.29609 41.5769 9.80782C41.5912 10.3158 41.4672 10.8181 41.2181 11.261C40.9822 11.6702 40.6283 11.9986 40.2027 12.2034C39.7223 12.4306 39.1957 12.543 38.6644 12.5318H36.8403V7.05954H38.6644C39.195 7.04156 39.7222 7.14993 40.2027 7.37571ZM40.1298 11.2792C40.3078 11.0798 40.4446 10.8472 40.5323 10.5946C40.6199 10.3421 40.6567 10.0747 40.6405 9.80782C40.6731 9.26154 40.4897 8.72433 40.1298 8.31207C39.9344 8.12474 39.7021 7.98036 39.4476 7.88821C39.1932 7.79606 38.9222 7.75818 38.6522 7.77701H37.7706V11.7961H38.6644C38.9309 11.8134 39.1982 11.7765 39.45 11.6877C39.7019 11.5989 39.9331 11.4599 40.1298 11.2792Z" fill="white"/>
<path d="M43.2489 12.3254C42.9195 12.1448 42.6477 11.8751 42.4645 11.5472C42.265 11.1736 42.1665 10.7544 42.1788 10.3311C42.1713 9.9211 42.272 9.51637 42.4706 9.15762C42.6555 8.82164 42.9344 8.54693 43.2732 8.36719C43.6212 8.185 44.0082 8.08984 44.4011 8.08984C44.7939 8.08984 45.1809 8.185 45.529 8.36719C45.8677 8.54693 46.1467 8.82164 46.3316 9.15762C46.5302 9.51637 46.6309 9.9211 46.6234 10.3311C46.6306 10.7446 46.5256 11.1522 46.3194 11.5107C46.1302 11.8491 45.8473 12.1257 45.5046 12.3072C45.1537 12.4962 44.7602 12.5925 44.3616 12.5869C43.9741 12.5995 43.5902 12.5093 43.2489 12.3254ZM45.0121 11.6566C45.222 11.5408 45.3949 11.3679 45.5107 11.158C45.6444 10.9035 45.7093 10.6184 45.6992 10.3311C45.7087 10.0543 45.6458 9.77972 45.5168 9.5346C45.4062 9.32696 45.2398 9.15429 45.0365 9.03601C44.8353 8.93349 44.6116 8.8833 44.3859 8.89009C44.1606 8.88888 43.9387 8.9454 43.7414 9.05425C43.5388 9.16968 43.3757 9.34341 43.2732 9.55284C43.152 9.79406 43.0915 10.0612 43.0969 10.3311C43.0712 10.7266 43.1998 11.1167 43.4556 11.4195C43.5716 11.5429 43.7121 11.6407 43.8681 11.7067C44.0241 11.7727 44.1922 11.8053 44.3616 11.8025C44.5811 11.8063 44.7982 11.7562 44.9939 11.6566H45.0121Z" fill="white"/>
<path d="M53.3665 8.17871L52.0106 12.5322H51.0743L50.1987 9.31572L49.311 12.5322H48.3625L47.0005 8.17871H47.9186L48.8306 11.6809L49.7548 8.17871H50.6912L51.5789 11.6627L52.4788 8.17871H53.3665Z" fill="white"/>
<path d="M57.1546 8.31843C57.4113 8.45864 57.6224 8.66969 57.7626 8.92645C57.9214 9.24076 57.9987 9.58989 57.9876 9.94186V12.5077H57.1546V10.0756C57.1763 9.7483 57.0694 9.42541 56.8566 9.17574C56.7537 9.07024 56.6293 8.98799 56.4919 8.93451C56.3546 8.88102 56.2073 8.85755 56.0601 8.86565C55.9122 8.85898 55.7644 8.8831 55.6263 8.93648C55.4881 8.98986 55.3626 9.07133 55.2575 9.17574C55.047 9.42667 54.9404 9.74863 54.9596 10.0756V12.5077H54.0354V8.17858H54.9353V8.67716C55.0877 8.49431 55.2816 8.35048 55.5007 8.25762C55.7332 8.15778 55.9835 8.10607 56.2365 8.10562C56.5551 8.10171 56.8701 8.17471 57.1546 8.31843Z" fill="white"/>
<path d="M60.0669 6.68262V12.5318H59.167V6.68262H60.0669Z" fill="white"/>
<path d="M62.0188 12.3255C61.6878 12.1416 61.4158 11.8675 61.2344 11.5351C61.04 11.1706 60.9416 10.7625 60.9486 10.3495C60.9412 9.93945 61.0418 9.53471 61.2405 9.17596C61.4249 8.84168 61.7013 8.56734 62.037 8.38553C62.3836 8.19646 62.7732 8.10012 63.1679 8.10584C63.5629 8.09872 63.9528 8.19515 64.2989 8.38553C64.6364 8.56696 64.9149 8.84125 65.1014 9.17596C65.3001 9.53471 65.4008 9.93945 65.3933 10.3495C65.4005 10.7629 65.2954 11.1706 65.0893 11.529C64.8966 11.8648 64.6146 12.1405 64.2745 12.3255C63.9232 12.5138 63.53 12.6101 63.1314 12.6052C62.7423 12.6123 62.3583 12.5158 62.0188 12.3255ZM63.782 11.6567C63.9889 11.5389 64.1593 11.3664 64.2745 11.1581C64.3969 10.9083 64.4606 10.6338 64.4606 10.3555C64.4606 10.0773 64.3969 9.80278 64.2745 9.55294C64.1645 9.34287 63.9954 9.16956 63.7881 9.05436C63.5908 8.9455 63.3689 8.88898 63.1436 8.89019C62.9182 8.88815 62.6961 8.94472 62.4991 9.05436C62.2947 9.16942 62.1296 9.34309 62.0248 9.55294C61.9028 9.80018 61.8443 10.0739 61.8546 10.3495C61.8289 10.745 61.9575 11.1351 62.2133 11.4378C62.3293 11.5612 62.4698 11.6591 62.6258 11.725C62.7819 11.791 62.9499 11.8236 63.1193 11.8209C63.3548 11.8262 63.5875 11.7696 63.7942 11.6567H63.782Z" fill="white"/>
<path d="M66.2749 9.17509C66.4457 8.84909 66.7021 8.57582 67.0167 8.38466C67.3321 8.20041 67.6911 8.10384 68.0564 8.10496C68.3682 8.09806 68.677 8.16692 68.9563 8.30561C69.1927 8.42836 69.4001 8.60046 69.5643 8.81027V8.20225H70.4763V12.5557H69.5643V11.8869C69.4016 12.0997 69.194 12.2741 68.9563 12.3976C68.6778 12.5394 68.3688 12.6104 68.0564 12.6044C67.6939 12.607 67.3379 12.508 67.0288 12.3186C66.7075 12.1239 66.4466 11.844 66.2749 11.5099C66.0884 11.1473 65.9944 10.7442 66.0013 10.3364C65.9928 9.9324 66.0869 9.53284 66.2749 9.17509ZM69.3819 9.57031C69.2708 9.35942 69.1021 9.18441 68.8955 9.06565C68.6981 8.9502 68.4735 8.88935 68.2449 8.88932C68.0187 8.88741 67.7961 8.9462 67.6004 9.05956C67.3951 9.17747 67.2267 9.35008 67.1139 9.55815C66.9821 9.79584 66.917 10.0647 66.9255 10.3364C66.9183 10.6118 66.9833 10.8843 67.1139 11.1269C67.2245 11.3412 67.3931 11.5203 67.6004 11.6437C67.7945 11.7615 68.0178 11.8226 68.2449 11.82C68.479 11.8235 68.7094 11.7616 68.9103 11.6413C69.1111 11.521 69.2745 11.347 69.3819 11.139C69.5083 10.8951 69.5711 10.6232 69.5643 10.3486C69.5693 10.0773 69.5044 9.80926 69.3758 9.57031H69.3819Z" fill="white"/>
<path d="M71.6255 9.17552C71.7917 8.85019 72.0441 8.57676 72.3551 8.38509C72.6721 8.19923 73.0335 8.10259 73.4009 8.1054C73.6911 8.10526 73.9777 8.16965 74.24 8.29389C74.4985 8.40029 74.7263 8.56958 74.9027 8.78639V6.68262H75.8087V12.5318H74.9027V11.8752C74.7468 12.0974 74.5378 12.2771 74.2947 12.3981C74.0167 12.541 73.7073 12.6121 73.3948 12.6048C73.0304 12.6076 72.6724 12.5086 72.3612 12.319C72.0426 12.123 71.7839 11.8433 71.6133 11.5103C71.4289 11.1472 71.337 10.7441 71.3458 10.3369C71.3392 9.93231 71.4354 9.53271 71.6255 9.17552ZM74.7325 9.57074C74.6229 9.36583 74.4599 9.19436 74.2608 9.07448C74.0617 8.9546 73.834 8.89078 73.6016 8.88975C73.3734 8.88764 73.1488 8.94641 72.951 9.06C72.7473 9.17986 72.5793 9.35199 72.4646 9.55858C72.3376 9.7979 72.2747 10.066 72.2821 10.3369C72.2761 10.6114 72.3388 10.8831 72.4646 11.1273C72.5773 11.3421 72.7479 11.5211 72.9571 11.6441C73.1512 11.7619 73.3745 11.823 73.6016 11.8204C73.8346 11.8228 74.0638 11.7604 74.2635 11.6401C74.4632 11.5199 74.6255 11.3465 74.7325 11.1394C74.8637 10.8971 74.9287 10.6245 74.921 10.349C74.9288 10.0774 74.8638 9.80866 74.7325 9.57074Z" fill="white"/>
<path d="M79.8461 12.3248C79.51 12.1469 79.2316 11.8769 79.0435 11.5465C78.8491 11.182 78.7507 10.7739 78.7577 10.3608C78.7463 9.94729 78.8449 9.53812 79.0435 9.1752C79.2284 8.83922 79.5073 8.56451 79.8461 8.38476C80.1942 8.20258 80.5811 8.10742 80.974 8.10742C81.3668 8.10742 81.7538 8.20258 82.1019 8.38476C82.4406 8.56451 82.7196 8.83922 82.9045 9.1752C83.1031 9.53394 83.2038 9.93868 83.1963 10.3487C83.2035 10.7621 83.0985 11.1698 82.8923 11.5283C82.7029 11.8644 82.4226 12.1404 82.0836 12.3248C81.7324 12.5131 81.3391 12.6093 80.9405 12.6045C80.5576 12.6083 80.1803 12.5119 79.8461 12.3248ZM81.6094 11.6559C81.8189 11.5417 81.9902 11.3683 82.1019 11.1574C82.2243 10.9075 82.2879 10.633 82.2879 10.3548C82.2879 10.0765 82.2243 9.80202 82.1019 9.55217C81.9918 9.34211 81.8227 9.1688 81.6155 9.05359C81.4176 8.9461 81.1961 8.88978 80.9709 8.88978C80.7458 8.88978 80.5243 8.9461 80.3264 9.05359C80.1239 9.16902 79.9607 9.34275 79.8583 9.55217C79.7341 9.79888 79.6735 10.0726 79.6819 10.3487C79.6562 10.7442 79.7848 11.1343 80.0407 11.4371C80.1567 11.5605 80.2972 11.6583 80.4532 11.7243C80.6092 11.7902 80.7773 11.8229 80.9466 11.8201C81.178 11.8234 81.4063 11.7668 81.6094 11.6559Z" fill="white"/>
<path d="M87.2275 8.31815C87.4842 8.45836 87.6953 8.66941 87.8355 8.92617C87.9964 9.23993 88.0759 9.5891 88.0666 9.94158V12.5074H87.1728V10.0753C87.1937 9.74916 87.0893 9.4273 86.8809 9.17547C86.6594 8.98216 86.3753 8.87565 86.0814 8.87565C85.7874 8.87565 85.5033 8.98216 85.2818 9.17547C85.069 9.42514 84.9621 9.74802 84.9839 10.0753V12.5074H84.084V8.1783H84.9839V8.67688C85.1339 8.49149 85.3284 8.34715 85.5493 8.25735C85.7798 8.15815 86.028 8.10645 86.279 8.10534C86.608 8.09567 86.9341 8.16885 87.2275 8.31815Z" fill="white"/>
<path d="M92.3471 8.9137V11.3458C92.3402 11.4094 92.3469 11.4738 92.3668 11.5346C92.3867 11.5954 92.4194 11.6513 92.4626 11.6985C92.5742 11.7822 92.7129 11.8212 92.8518 11.8079H93.4051V12.5558H92.6937C92.3599 12.5784 92.0294 12.479 91.7634 12.2761C91.6478 12.1521 91.5594 12.0052 91.5039 11.845C91.4484 11.6848 91.427 11.5148 91.4411 11.3458V8.9137H90.9243V8.17799H91.4411V7.0957H92.3471V8.17799H93.4051V8.9137H92.3471Z" fill="white"/>
<path d="M97.3816 8.31821C97.6379 8.45896 97.8488 8.66988 97.9896 8.92623C98.1484 9.24054 98.2257 9.58967 98.2145 9.94164V12.5075H97.3208V10.0754C97.3416 9.74922 97.2373 9.42735 97.0289 9.17552C96.8074 8.98222 96.5233 8.87571 96.2293 8.87571C95.9353 8.87571 95.6513 8.98222 95.4298 9.17552C95.217 9.42519 95.1101 9.74808 95.1319 10.0754V12.5075H94.2441V6.68262H95.144V8.68302C95.3074 8.49193 95.5166 8.34547 95.752 8.2574C95.9946 8.15579 96.2552 8.1041 96.5182 8.1054C96.8189 8.10575 97.1151 8.17875 97.3816 8.31821Z" fill="white"/>
<path d="M103.328 10.6895H100.002C100.006 10.8506 100.042 11.0094 100.107 11.1566C100.173 11.3038 100.268 11.4364 100.385 11.5468C100.619 11.7596 100.926 11.873 101.242 11.863C101.455 11.8768 101.667 11.8262 101.85 11.7177C102.033 11.6093 102.18 11.448 102.27 11.2549H103.243C103.114 11.6508 102.863 11.9957 102.525 12.2399C102.151 12.5043 101.7 12.6389 101.242 12.623C100.851 12.6308 100.465 12.5343 100.124 12.3433C99.7957 12.1574 99.5261 11.8837 99.3453 11.5529C99.1631 11.1853 99.0684 10.7805 99.0684 10.3703C99.0684 9.95997 99.1631 9.55525 99.3453 9.18764C99.5182 8.8567 99.7847 8.58392 100.111 8.40329C100.459 8.21133 100.851 8.11483 101.248 8.12359C101.63 8.11742 102.007 8.20955 102.343 8.39113C102.654 8.55918 102.913 8.80949 103.091 9.11468C103.274 9.4587 103.366 9.84382 103.358 10.2334C103.359 10.386 103.349 10.5384 103.328 10.6895ZM102.416 9.96591C102.421 9.81429 102.392 9.66349 102.331 9.5246C102.27 9.38571 102.178 9.26226 102.063 9.16332C101.821 8.96245 101.514 8.85655 101.2 8.86539C100.906 8.85793 100.62 8.96472 100.403 9.16332C100.174 9.37091 100.033 9.65788 100.008 9.96591H102.416Z" fill="white"/>
</g>
<path d="M43.7779 25.4762H39.388L38.634 27.6104H36.8464L40.5919 17.1523H42.5619L46.3012 27.6104H44.4772L43.7779 25.4762ZM43.2976 24.0778L41.6012 19.2136L39.8866 24.0778H43.2976Z" fill="white"/>
<path d="M50.8371 19.5852C51.3647 19.3196 51.9489 19.186 52.5395 19.1961C53.2387 19.182 53.9278 19.3642 54.5287 19.7221C55.1295 20.08 55.6179 20.5992 55.9384 21.2208C56.2884 21.9052 56.4639 22.6655 56.4491 23.434C56.4624 24.2082 56.2871 24.9741 55.9384 25.6655C55.6214 26.2966 55.1351 26.8272 54.5339 27.1977C53.9394 27.5616 53.2547 27.7512 52.5578 27.7449C51.9669 27.7569 51.3822 27.6233 50.8553 27.3558C50.3877 27.1261 49.9734 26.8009 49.6392 26.4012V31.539H47.9368V19.3298H49.6514V20.5459C49.9726 20.1438 50.3771 19.8161 50.8371 19.5852ZM54.3332 21.9504C54.1162 21.5563 53.7942 21.23 53.4029 21.008C53.1175 20.8434 52.8019 20.7377 52.4749 20.6973C52.1478 20.6569 51.816 20.6825 51.4991 20.7727C51.1821 20.8628 50.8865 21.0157 50.6297 21.2221C50.3729 21.4286 50.1601 21.6845 50.0041 21.9748C49.759 22.4322 49.6375 22.9456 49.6514 23.4644C49.6389 23.985 49.7604 24.5 50.0041 24.9602C50.1575 25.253 50.369 25.5114 50.6256 25.7197C50.8823 25.928 51.1787 26.0818 51.4968 26.1717C51.8149 26.2616 52.148 26.2858 52.4757 26.2426C52.8034 26.1995 53.1189 26.09 53.4029 25.9208C53.7991 25.6806 54.121 25.3355 54.3332 24.9237C54.5779 24.4617 54.6994 23.9445 54.6859 23.4219C54.6977 22.9091 54.5762 22.4021 54.3332 21.9504Z" fill="white"/>
<path d="M61.0275 19.585C61.5551 19.3193 62.1393 19.1858 62.73 19.1958C63.4244 19.1901 64.1074 19.3729 64.706 19.7248C65.3029 20.0847 65.7889 20.6023 66.1106 21.2206C66.4606 21.9049 66.6361 22.6652 66.6213 23.4338C66.6346 24.208 66.4593 24.9739 66.1106 25.6652C65.7936 26.2964 65.3073 26.8269 64.706 27.1975C64.1112 27.5604 63.4268 27.75 62.73 27.7447C62.1452 27.7544 61.5669 27.6208 61.0457 27.3555C60.5781 27.1258 60.1639 26.8006 59.8297 26.4009V31.5388H58.1272V19.3296H59.8418V20.5457C60.163 20.1436 60.5675 19.8158 61.0275 19.585ZM64.5236 21.9502C64.3067 21.5561 63.9846 21.2298 63.5933 21.0078C63.3079 20.8431 62.9923 20.7375 62.6653 20.6971C62.3382 20.6567 62.0064 20.6823 61.6895 20.7724C61.3725 20.8626 61.0769 21.0154 60.8201 21.2219C60.5633 21.4284 60.3506 21.6843 60.1945 21.9745C59.9495 22.432 59.8279 22.9454 59.8418 23.4642C59.8293 23.9847 59.9508 24.4998 60.1945 24.9599C60.3479 25.2527 60.5594 25.5112 60.8161 25.7195C61.0727 25.9278 61.3691 26.0816 61.6872 26.1715C62.0053 26.2614 62.3384 26.2855 62.6661 26.2424C62.9939 26.1993 63.3094 26.0898 63.5933 25.9206C63.9895 25.6804 64.3115 25.3353 64.5236 24.9234C64.7684 24.4615 64.8898 23.9442 64.8763 23.4216C64.8881 22.9089 64.7666 22.4019 64.5236 21.9502Z" fill="white"/>
<path d="M73.7719 27.3557C73.2445 27.1346 72.7881 26.7728 72.4525 26.3099C72.1276 25.8477 71.9593 25.2937 71.9721 24.729H73.7962C73.8261 25.1546 74.0175 25.5526 74.3313 25.8417C74.7026 26.1528 75.1793 26.3095 75.6628 26.2795C76.1602 26.3092 76.6513 26.1556 77.043 25.8478C77.2035 25.7136 77.3316 25.5449 77.4179 25.3544C77.5042 25.1639 77.5465 24.9564 77.5416 24.7472C77.5534 24.4321 77.4422 24.1247 77.2315 23.8899C77.0166 23.6657 76.7551 23.4913 76.4654 23.3792C76.05 23.2243 75.6256 23.0944 75.1947 22.99C74.6405 22.8437 74.0979 22.6567 73.5712 22.4307C73.1383 22.2445 72.7627 21.9465 72.4829 21.5673C72.1611 21.1119 72.0026 20.5613 72.0329 20.0046C72.0186 19.4461 72.1756 18.8965 72.4829 18.4299C72.7918 17.9678 73.2294 17.6063 73.7415 17.3901C74.3361 17.1415 74.9759 17.0193 75.6203 17.0314C76.512 16.9906 77.3905 17.2591 78.1071 17.7914C78.4273 18.0386 78.6896 18.3528 78.8755 18.712C79.0614 19.0712 79.1665 19.4667 79.1833 19.8709H77.2923C77.2751 19.6791 77.218 19.493 77.1249 19.3244C77.0317 19.1559 76.9044 19.0086 76.7512 18.892C76.3754 18.6102 75.9131 18.4683 75.4439 18.4907C75.0076 18.4677 74.5771 18.599 74.2279 18.8616C74.0716 18.9936 73.948 19.16 73.8668 19.3478C73.7856 19.5355 73.7489 19.7395 73.7597 19.9438C73.749 20.2355 73.8539 20.5196 74.0516 20.7343C74.2615 20.9502 74.517 21.1164 74.7994 21.2207C75.1968 21.3759 75.6028 21.5079 76.0155 21.6159C76.5942 21.7645 77.1612 21.9555 77.7119 22.1875C78.1495 22.3799 78.5305 22.6814 78.8185 23.063C79.1481 23.5243 79.311 24.0839 79.2806 24.65C79.2797 25.181 79.1301 25.7013 78.8489 26.1518C78.5572 26.6366 78.1361 27.0303 77.6328 27.2888C77.0346 27.5856 76.373 27.7317 75.7054 27.7144C75.0428 27.7321 74.384 27.6099 73.7719 27.3557Z" fill="white"/>
<path d="M83.2995 20.7282V25.3127C83.2885 25.4333 83.3022 25.5548 83.3398 25.6698C83.3775 25.7848 83.4382 25.8909 83.5184 25.9816C83.7333 26.1359 83.9968 26.2072 84.2602 26.1822H85.3121V27.6111H83.9622C83.3243 27.6528 82.693 27.4604 82.1868 27.0699C81.9654 26.8377 81.7965 26.5607 81.6916 26.2575C81.5867 25.9543 81.5482 25.6321 81.5788 25.3127V20.7282H80.5999V19.3298H81.5788V17.2686H83.2995V19.3298H85.3121V20.7282H83.2995Z" fill="white"/>
<path d="M88.3643 27.2097C87.737 26.8583 87.2209 26.338 86.8746 25.7079C86.5059 25.0186 86.3216 24.2458 86.3396 23.4643C86.3238 22.6808 86.5147 21.907 86.8929 21.2207C87.2474 20.5864 87.7745 20.0657 88.4129 19.7188C89.0774 19.3755 89.8144 19.1963 90.5623 19.1963C91.3102 19.1963 92.0472 19.3755 92.7117 19.7188C93.3539 20.0649 93.885 20.5855 94.2439 21.2207C94.624 21.9065 94.8169 22.6803 94.8033 23.4643C94.8159 24.2478 94.6185 25.0203 94.2317 25.7018C93.8638 26.3399 93.3246 26.8622 92.6752 27.2097C92.009 27.5698 91.2618 27.754 90.5046 27.7448C89.7563 27.7594 89.0176 27.5747 88.3643 27.2097ZM91.7267 25.945C92.121 25.7222 92.4453 25.3937 92.663 24.9965C92.9171 24.5267 93.043 23.9982 93.0279 23.4643C93.0439 22.9351 92.9269 22.4103 92.6874 21.9381C92.4766 21.5435 92.1583 21.2167 91.7692 20.9957C91.3966 20.7907 90.9785 20.682 90.5532 20.6795C90.1275 20.6791 89.7087 20.7879 89.3371 20.9957C88.9526 21.2145 88.6415 21.5425 88.4433 21.9381C88.206 22.4109 88.091 22.9356 88.1089 23.4643C88.0558 24.2129 88.2932 24.9533 88.7717 25.5316C88.991 25.767 89.2578 25.9533 89.5544 26.078C89.851 26.2028 90.1707 26.2631 90.4924 26.2551C90.9231 26.2552 91.3472 26.1487 91.7267 25.945Z" fill="white"/>
<path d="M99.1932 19.5481C99.6463 19.303 100.156 19.1814 100.671 19.1954V20.9648H100.239C99.9635 20.9446 99.6867 20.9793 99.4247 21.067C99.1627 21.1547 98.9208 21.2936 98.7129 21.4755C98.3136 21.9762 98.1279 22.6142 98.1961 23.251V27.6105H96.4814V19.3292H98.1961V20.5452C98.4331 20.1295 98.7775 19.7851 99.1932 19.5481Z" fill="white"/>
<path d="M109.779 24.1089H103.456C103.467 24.41 103.537 24.7058 103.664 24.9793C103.79 25.2527 103.969 25.4984 104.191 25.702C104.633 26.1077 105.215 26.3257 105.815 26.31C106.219 26.3354 106.622 26.2381 106.97 26.0309C107.318 25.8237 107.596 25.5162 107.766 25.1487H109.591C109.347 25.9 108.87 26.554 108.229 27.0153C107.519 27.5178 106.665 27.774 105.796 27.7449C105.052 27.7579 104.318 27.5733 103.668 27.2099C103.045 26.8592 102.535 26.3383 102.197 25.708C101.828 25.0188 101.644 24.2459 101.662 23.4644C101.644 22.6832 101.822 21.9098 102.179 21.2147C102.509 20.5845 103.016 20.0646 103.638 19.719C104.301 19.362 105.044 19.1819 105.796 19.1961C106.524 19.1831 107.243 19.3591 107.882 19.7068C108.487 20.0372 108.983 20.5355 109.311 21.1418C109.661 21.7956 109.837 22.5284 109.822 23.2699C109.831 23.5502 109.817 23.8309 109.779 24.1089ZM108.052 22.7287C108.057 22.4415 108 22.1566 107.883 21.894C107.766 21.6314 107.594 21.3975 107.377 21.2087C106.919 20.8224 106.335 20.6189 105.736 20.6371C105.177 20.6256 104.636 20.8279 104.222 21.2026C103.788 21.5986 103.519 22.1434 103.468 22.7287H108.052Z" fill="white"/>
<path d="M27.4523 15.2925C26.7385 15.7276 26.148 16.3382 25.7371 17.0663C25.3263 17.7943 25.1088 18.6154 25.1053 19.4514C25.109 20.3852 25.3863 21.2975 25.9028 22.0756C26.4193 22.8536 27.1524 23.4632 28.0116 23.8292C27.6721 24.9236 27.1699 25.9607 26.522 26.9058C25.5978 28.2373 24.6249 29.5689 23.1535 29.5689C21.6821 29.5689 21.3294 28.7177 19.6026 28.7177C17.8758 28.7177 17.3529 29.5993 16.0092 29.5993C14.6655 29.5993 13.7169 28.3833 12.6347 26.851C11.2053 24.725 10.42 22.2317 10.3728 19.6703C10.3728 15.4627 13.1089 13.2252 15.8086 13.2252C17.2435 13.2252 18.4352 14.1676 19.329 14.1676C20.2228 14.1676 21.524 13.1705 23.1535 13.1705C23.9916 13.1494 24.822 13.3346 25.5716 13.71C26.3212 14.0853 26.9671 14.6392 27.4523 15.3229V15.2925ZM22.3813 11.3585C23.1016 10.5069 23.5073 9.43358 23.5305 8.31842C23.5317 8.17341 23.5174 8.02869 23.4879 7.88672C22.2544 8.00423 21.1135 8.59211 20.3019 9.52839C19.5669 10.3358 19.1368 11.3745 19.0858 12.4652C19.0879 12.5959 19.1022 12.7262 19.1284 12.8543C19.2245 12.8734 19.3222 12.8836 19.4202 12.8847C19.9895 12.8397 20.5436 12.679 21.0486 12.4124C21.5535 12.1458 21.9988 11.7789 22.357 11.3342L22.3813 11.3585Z" fill="white"/>
</g>
</g>
</g>
<defs>
<clipPath id="clip0_79_9868">
<rect width="120" height="38.19" fill="white"/>
</clipPath>
<clipPath id="clip1_79_9868">
<rect width="120" height="38.19" fill="white"/>
</clipPath>
<clipPath id="clip2_79_9868">
<rect width="120" height="38.2023" fill="white" transform="translate(0 -0.00585938)"/>
</clipPath>
</defs>
</svg>
