<svg width="32" height="32" viewBox="0 0 32 32" fill="none" xmlns="http://www.w3.org/2000/svg">
<path d="M6.99995 9.5C6.99995 7.51088 7.79013 5.60322 9.19665 4.1967C10.6032 2.79018 12.5108 2 14.5 2C16.4891 2 18.3967 2.79018 19.8033 4.1967C21.2098 5.60322 22 7.51088 22 9.5C22 9.76522 21.8946 10.0196 21.7071 10.2071C21.5195 10.3946 21.2652 10.5 21 10.5C20.7347 10.5 20.4804 10.3946 20.2928 10.2071C20.1053 10.0196 20 9.76522 20 9.5C20 8.04131 19.4205 6.64236 18.389 5.61091C17.3576 4.57946 15.9586 4 14.5 4C13.0413 4 11.6423 4.57946 10.6109 5.61091C9.57941 6.64236 8.99995 8.04131 8.99995 9.5C8.99995 9.76522 8.89459 10.0196 8.70706 10.2071C8.51952 10.3946 8.26517 10.5 7.99995 10.5C7.73473 10.5 7.48038 10.3946 7.29284 10.2071C7.10531 10.0196 6.99995 9.76522 6.99995 9.5ZM24.5 15C23.9166 14.9994 23.3424 15.1451 22.83 15.4237C22.6768 14.9499 22.4243 14.5141 22.0893 14.1456C21.7543 13.7771 21.3446 13.4844 20.8874 13.2869C20.4302 13.0894 19.9361 12.9918 19.4382 13.0005C18.9403 13.0092 18.4499 13.1241 18 13.3375V9.5C18 8.57174 17.6312 7.6815 16.9748 7.02513C16.3184 6.36875 15.4282 6 14.5 6C13.5717 6 12.6815 6.36875 12.0251 7.02513C11.3687 7.6815 11 8.57174 11 9.5V19.5L10.5225 18.7337C10.0555 17.9313 9.28891 17.3472 8.39132 17.11C7.49372 16.8728 6.53865 17.0018 5.7362 17.4688C4.93376 17.9357 4.34967 18.7023 4.11244 19.5999C3.8752 20.4975 4.00425 21.4526 4.4712 22.255L8.1362 28.505C8.19767 28.6267 8.28338 28.7346 8.38807 28.822C8.49277 28.9094 8.61422 28.9744 8.74498 29.0131C8.87574 29.0518 9.01303 29.0634 9.14842 29.0471C9.28381 29.0308 9.41443 28.987 9.53226 28.9183C9.65008 28.8497 9.75263 28.7576 9.83358 28.6479C9.91453 28.5382 9.97219 28.413 10.003 28.2802C10.0338 28.1473 10.0371 28.0096 10.0127 27.8754C9.98835 27.7413 9.93678 27.6135 9.8612 27.5L6.19995 21.25C6.09716 21.0793 6.02942 20.8898 6.00069 20.6926C5.97196 20.4954 5.98281 20.2944 6.03261 20.1014C6.08242 19.9085 6.17017 19.7274 6.29075 19.5687C6.41133 19.4101 6.56232 19.277 6.7349 19.1773C6.90747 19.0777 7.09818 19.0134 7.29587 18.9883C7.49357 18.9632 7.69429 18.9777 7.88631 19.031C8.07833 19.0843 8.2578 19.1753 8.41424 19.2988C8.57068 19.4222 8.70096 19.5756 8.79745 19.75L8.81495 19.7787L11.15 23.5287C11.2646 23.7137 11.4365 23.8563 11.6395 23.9347C11.8425 24.0132 12.0655 24.0233 12.2748 23.9635C12.484 23.9037 12.668 23.7772 12.7989 23.6033C12.9298 23.4295 13.0004 23.2176 13 23V9.5C13 9.10218 13.158 8.72064 13.4393 8.43934C13.7206 8.15804 14.1021 8 14.5 8C14.8978 8 15.2793 8.15804 15.5606 8.43934C15.8419 8.72064 16 9.10218 16 9.5V18C16 18.2652 16.1053 18.5196 16.2928 18.7071C16.4804 18.8946 16.7347 19 17 19C17.2652 19 17.5195 18.8946 17.7071 18.7071C17.8946 18.5196 18 18.2652 18 18V16.5C18 16.1022 18.158 15.7206 18.4393 15.4393C18.7206 15.158 19.1021 15 19.5 15C19.8978 15 20.2793 15.158 20.5606 15.4393C20.8419 15.7206 21 16.1022 21 16.5V19C21 19.2652 21.1053 19.5196 21.2928 19.7071C21.4804 19.8946 21.7347 20 22 20C22.2652 20 22.5195 19.8946 22.7071 19.7071C22.8946 19.5196 23 19.2652 23 19V18.5C23 18.1022 23.158 17.7206 23.4393 17.4393C23.7206 17.158 24.1021 17 24.5 17C24.8978 17 25.2793 17.158 25.5606 17.4393C25.8419 17.7206 26 18.1022 26 18.5V23C26 25.7013 25.1124 27.5375 25.1049 27.5525C24.9865 27.7897 24.9671 28.0643 25.051 28.3158C25.1349 28.5673 25.3153 28.7752 25.5525 28.8937C25.6912 28.9639 25.8445 29.0003 26 29C26.1857 29.0001 26.3679 28.9485 26.526 28.8509C26.684 28.7533 26.8118 28.6136 26.895 28.4475C26.9412 28.3563 28.0012 26.1975 28.0012 23V18.5C28.0012 18.0403 27.9106 17.585 27.7347 17.1603C27.5587 16.7356 27.3008 16.3497 26.9756 16.0247C26.6505 15.6997 26.2645 15.4419 25.8397 15.2661C25.4149 15.0902 24.9597 14.9998 24.5 15Z" fill="#0F172A"/>
</svg>
