<svg width="120" height="39" viewBox="0 0 120 39" fill="none" xmlns="http://www.w3.org/2000/svg">
<g clip-path="url(#clip0_79_9839)">
<g clip-path="url(#clip1_79_9839)">
<g clip-path="url(#clip2_79_9839)">
<path d="M110.88 -0.00585938H9.12039C4.08334 -0.00585938 0 4.07748 0 9.11453V29.076C0 34.1131 4.08334 38.1964 9.12039 38.1964H110.88C115.917 38.1964 120 34.1131 120 29.076V9.11453C120 4.07748 115.917 -0.00585938 110.88 -0.00585938Z" fill="black"/>
<g opacity="0.58">
<path d="M40.8471 8.62204C40.7095 8.36335 40.4978 8.15163 40.2391 8.01401C39.9696 7.87098 39.6686 7.79781 39.3635 7.80121C39.0228 7.79629 38.687 7.88235 38.3907 8.0505C38.1046 8.21094 37.872 8.45199 37.7218 8.74365C37.5619 9.06908 37.4788 9.42685 37.4788 9.78945C37.4788 10.1521 37.5619 10.5098 37.7218 10.8353C37.8729 11.1349 38.11 11.3827 38.4028 11.5466C38.6997 11.713 39.0355 11.7969 39.3757 11.7899C39.8184 11.8158 40.254 11.6699 40.5917 11.3825C40.9042 11.0871 41.1023 10.6909 41.1511 10.2637H39.0656V9.52192H42.1057V10.2272C42.0465 10.6527 41.888 11.0583 41.6429 11.4111C41.3978 11.7639 41.0731 12.054 40.6951 12.258C40.2945 12.4767 39.8441 12.5877 39.3878 12.5803C38.8926 12.585 38.4045 12.4614 37.9711 12.2216C37.5469 11.9868 37.1956 11.6397 36.9557 11.2183C36.7086 10.7771 36.5789 10.2799 36.5789 9.77425C36.5789 9.26858 36.7086 8.77137 36.9557 8.33019C37.198 7.90861 37.5513 7.5616 37.9772 7.32695C38.4363 7.07937 38.9521 6.95588 39.4735 6.96868C39.995 6.98147 40.5041 7.13011 40.9505 7.39991C41.404 7.68705 41.7518 8.11385 41.9415 8.61596L40.8471 8.62204Z" fill="white"/>
<path d="M43.8811 7.76488V9.38223H45.7781V10.1119H43.8811V11.7961H46.0152V12.5318H42.9751V7.05957H46.0152V7.79528L43.8811 7.76488Z" fill="white"/>
<path d="M50.6667 7.04102V7.77673H49.2074V12.5315H48.3075V7.77673H46.8179V7.04102H50.6667Z" fill="white"/>
<path d="M54.5337 7.04102V12.5132H53.6338V7.04102H54.5337Z" fill="white"/>
<path d="M59.2702 7.04102V7.77673H57.8049V12.5315H56.905V7.77673H55.4336V7.04102H59.2702Z" fill="white"/>
<path d="M63.3258 12.2273C62.9016 11.9925 62.5503 11.6454 62.3104 11.2241C62.0549 10.7852 61.9245 10.2847 61.9334 9.77695C61.9229 9.26901 62.0534 8.7681 62.3104 8.32985C62.552 7.90983 62.9029 7.56313 63.3258 7.32661C63.7576 7.08831 64.2433 6.96479 64.7364 6.96787C65.2336 6.96379 65.7235 7.08731 66.1592 7.32661C66.5821 7.56313 66.933 7.90983 67.1746 8.32985C67.4269 8.76978 67.5551 9.26991 67.5455 9.77695C67.5536 10.2838 67.4255 10.7835 67.1746 11.2241C66.9348 11.6454 66.5834 11.9925 66.1592 12.2273C65.7245 12.4692 65.2339 12.5929 64.7364 12.586C64.2429 12.5922 63.7565 12.4685 63.3258 12.2273ZM65.7093 11.5585C65.995 11.3893 66.2269 11.1426 66.3781 10.8471C66.546 10.5158 66.6296 10.1482 66.6213 9.77695C66.6309 9.40553 66.5472 9.03764 66.3781 8.70683C66.2285 8.41172 65.996 8.16663 65.7093 8.00152C65.411 7.84185 65.0778 7.7583 64.7395 7.7583C64.4011 7.7583 64.068 7.84185 63.7697 8.00152C63.4829 8.16663 63.2505 8.41172 63.1009 8.70683C62.9317 9.03764 62.8481 9.40553 62.8576 9.77695C62.8494 10.1482 62.9329 10.5158 63.1009 10.8471C63.2521 11.1426 63.484 11.3893 63.7697 11.5585C64.0668 11.7219 64.4004 11.8075 64.7395 11.8075C65.0786 11.8075 65.4122 11.7219 65.7093 11.5585Z" fill="white"/>
<path d="M72.9631 12.5319H72.0632L69.3149 8.43384V12.5319H68.415V7.0597H69.3149L72.0267 11.1578V7.0293H72.9631V12.5319Z" fill="white"/>
</g>
<path d="M43.717 21.2747C43.5047 20.8531 43.1698 20.5055 42.7563 20.2776C42.3229 20.0467 41.8365 19.9335 41.3457 19.9492C40.7972 19.9413 40.2563 20.0776 39.777 20.3444C39.3158 20.6059 38.9416 20.997 38.7008 21.4693C38.4449 21.9949 38.3119 22.5719 38.3119 23.1566C38.3119 23.7412 38.4449 24.3182 38.7008 24.8438C38.9397 25.319 39.3143 25.7126 39.777 25.9748C40.2563 26.2416 40.7972 26.3779 41.3457 26.37C42.0492 26.403 42.7387 26.1659 43.2732 25.7072C43.788 25.2297 44.112 24.5815 44.1852 23.8831H40.8411V22.7461H45.7053V23.8831C45.6176 24.5638 45.3742 25.215 44.9939 25.7863C44.5872 26.3767 44.042 26.8583 43.406 27.189C42.77 27.5198 42.0626 27.6895 41.3457 27.6833C40.5463 27.6937 39.7581 27.4945 39.0595 27.1057C38.3777 26.7249 37.8124 26.1658 37.4239 25.4883C37.0251 24.7748 36.8157 23.971 36.8157 23.1535C36.8157 22.3361 37.0251 21.5322 37.4239 20.8187C37.8137 20.1381 38.3839 19.5783 39.0717 19.2013C39.7637 18.8037 40.5476 18.5941 41.3457 18.5933C42.2365 18.5796 43.1124 18.8223 43.869 19.2926C44.6053 19.7598 45.1672 20.4563 45.4681 21.2747H43.717Z" fill="white"/>
<path d="M48.4172 27.2702C47.8821 26.9745 47.4431 26.5313 47.1525 25.9934C46.8451 25.405 46.6846 24.751 46.6846 24.0872C46.6846 23.4234 46.8451 22.7694 47.1525 22.1811C47.4524 21.6418 47.8995 21.199 48.4415 20.9042C49.0056 20.6136 49.631 20.4619 50.2656 20.4619C50.9002 20.4619 51.5256 20.6136 52.0897 20.9042C52.6304 21.2008 53.077 21.6432 53.3787 22.1811C53.6995 22.7632 53.861 23.4197 53.8469 24.0842C53.8609 24.7502 53.6949 25.4077 53.3665 25.9873C53.0529 26.5301 52.5938 26.9745 52.041 27.2702C51.4812 27.5736 50.8537 27.7305 50.217 27.7263C49.5874 27.7351 48.9666 27.5778 48.4172 27.2702ZM51.2689 26.194C51.6056 26.0054 51.8818 25.7249 52.0654 25.3854C52.2828 24.987 52.3898 24.5378 52.3755 24.0842C52.3907 23.6339 52.288 23.1874 52.0775 22.7891C51.9021 22.4528 51.6314 22.1757 51.2993 21.9926C50.9798 21.8169 50.6211 21.7248 50.2565 21.7248C49.8919 21.7248 49.5332 21.8169 49.2137 21.9926C48.8883 22.1785 48.6242 22.4553 48.4537 22.7891C48.2551 23.1911 48.159 23.636 48.174 24.0842C48.1418 24.7265 48.3598 25.3563 48.782 25.8414C48.9691 26.0409 49.1966 26.1983 49.4492 26.3031C49.7019 26.408 49.974 26.4578 50.2474 26.4494C50.6035 26.4482 50.954 26.3605 51.2689 26.194Z" fill="white"/>
<path d="M56.5463 27.2698C56.0287 26.9673 55.6071 26.5247 55.3302 25.9929C55.0228 25.4046 54.8623 24.7506 54.8623 24.0868C54.8623 23.423 55.0228 22.769 55.3302 22.1806C55.6285 21.6401 56.076 21.1969 56.6193 20.9038C57.1831 20.6122 57.8086 20.46 58.4433 20.46C59.0781 20.46 59.7036 20.6122 60.2674 20.9038C60.8111 21.1984 61.2602 21.6411 61.5625 22.1806C61.8807 22.7638 62.042 23.4195 62.0307 24.0837C62.0456 24.7507 61.8774 25.4089 61.5443 25.9869C61.2265 26.535 60.758 26.9803 60.1945 27.2698C59.6343 27.5724 59.007 27.7293 58.3704 27.7258C57.7327 27.7378 57.1033 27.5805 56.5463 27.2698ZM59.404 26.1936C59.7385 26.004 60.0126 25.7237 60.1945 25.3849C60.4119 24.9866 60.5189 24.5374 60.5045 24.0837C60.5168 23.6338 60.4143 23.1881 60.2066 22.7887C60.0295 22.4536 59.7592 22.177 59.4283 21.9921C59.1094 21.8125 58.7486 21.7202 58.3825 21.7246C58.0183 21.7192 57.6592 21.8116 57.3428 21.9921C57.0161 22.1764 56.7515 22.4536 56.5828 22.7887C56.3841 23.1907 56.2881 23.6356 56.3031 24.0837C56.265 24.7269 56.4837 25.3589 56.9111 25.8409C57.0982 26.0405 57.3257 26.1979 57.5783 26.3027C57.831 26.4075 58.103 26.4574 58.3765 26.449C58.7388 26.4507 59.0959 26.363 59.4162 26.1936H59.404Z" fill="white"/>
<path d="M67.7403 20.783C68.1198 20.9783 68.4502 21.2568 68.707 21.5978V20.5763H70.1724V27.7267C70.1841 28.3274 70.044 28.9213 69.765 29.4535C69.4995 29.9657 69.0893 30.3886 68.5854 30.6695C68.0236 30.9652 67.3961 31.1137 66.7613 31.1012C65.9203 31.1324 65.0908 30.8985 64.39 30.4324C64.0868 30.2269 63.833 29.9567 63.6469 29.6413C63.4608 29.3259 63.3471 28.9731 63.3138 28.6083H64.7609C64.8787 28.981 65.1298 29.2971 65.4662 29.496C65.8582 29.7264 66.3069 29.8422 66.7613 29.8305C67.0233 29.8421 67.2849 29.8008 67.5304 29.7088C67.7759 29.6169 68.0004 29.4762 68.1902 29.2954C68.3805 29.0857 68.5265 28.8398 68.6195 28.5723C68.7125 28.3048 68.7505 28.0214 68.7313 27.7388V26.5532C68.4611 26.9002 68.1188 27.1844 67.7281 27.3862C67.2856 27.6174 66.7924 27.7345 66.2932 27.7267C65.7008 27.7319 65.1191 27.5696 64.615 27.2585C64.0959 26.9471 63.6746 26.4963 63.3989 25.9573C63.1005 25.3702 62.9502 24.7189 62.9612 24.0603C62.9486 23.4074 63.0991 22.7616 63.3989 22.1815C63.6733 21.6576 64.0871 21.2197 64.5946 20.9161C65.1021 20.6124 65.6836 20.4549 66.2749 20.4608C66.7821 20.4493 67.2847 20.5598 67.7403 20.783ZM68.4273 22.8199C68.2467 22.4807 67.9751 22.1986 67.643 22.0052C67.3262 21.8187 66.9647 21.722 66.5972 21.7255C66.2306 21.7237 65.8701 21.8181 65.5514 21.9991C65.2211 22.1894 64.9497 22.4671 64.767 22.8017C64.5571 23.1873 64.4523 23.6214 64.463 24.0603C64.4538 24.5049 64.5585 24.9444 64.767 25.3371C64.9493 25.6835 65.2226 25.9736 65.5574 26.1762C65.8725 26.362 66.2314 26.4607 66.5972 26.462C66.9643 26.4624 67.3251 26.366 67.643 26.1823C67.9782 25.9874 68.2504 25.7004 68.4273 25.3554C68.627 24.9626 68.7311 24.5283 68.7311 24.0876C68.7311 23.647 68.627 23.2127 68.4273 22.8199Z" fill="white"/>
<path d="M73.5711 18.1621V27.6108H72.1118V18.1621H73.5711Z" fill="white"/>
<path d="M81.8829 24.6377H76.508C76.5242 25.1504 76.7428 25.6357 77.116 25.9875C77.4909 26.3288 77.9833 26.5118 78.4901 26.4983C78.835 26.5268 79.1803 26.4495 79.4801 26.2768C79.7799 26.1041 80.0199 25.8441 80.1683 25.5315H81.7431C81.5354 26.1709 81.1311 26.7284 80.5878 27.1246C79.9794 27.5482 79.2492 27.7617 78.5084 27.7326C77.8706 27.7454 77.241 27.588 76.6843 27.2766C76.1541 26.9785 75.7196 26.5356 75.4318 25.9997C75.1232 25.4114 74.9685 24.7547 74.9818 24.0905C74.9681 23.4277 75.1185 22.7719 75.4196 22.1813C75.6966 21.6512 76.1183 21.2106 76.6357 20.9105C77.1946 20.606 77.8234 20.453 78.4597 20.4667C79.0788 20.4557 79.6902 20.6044 80.2352 20.8984C80.7473 21.1807 81.1689 21.6023 81.4512 22.1144C81.7489 22.6755 81.8976 23.3035 81.8829 23.9385C81.8989 24.1713 81.8989 24.4049 81.8829 24.6377ZM80.4115 23.4582C80.4163 23.2146 80.3676 22.9729 80.2688 22.7502C80.1701 22.5275 80.0237 22.3291 79.8399 22.1691C79.4514 21.8413 78.9557 21.6681 78.4476 21.6827C77.9726 21.6741 77.5121 21.8457 77.1586 22.1631C76.7919 22.5002 76.5643 22.962 76.5201 23.4582H80.4115Z" fill="white"/>
<path d="M92.566 22.6555C92.33 23.0759 91.9744 23.4166 91.5445 23.6345C90.9771 23.9095 90.3503 24.039 89.7204 24.0114H88.1638V27.611H86.7046V18.7338H89.7447C90.3416 18.7181 90.9343 18.8387 91.4776 19.0864C91.9202 19.2967 92.289 19.6358 92.5356 20.0593C92.7736 20.4643 92.8957 20.9271 92.8882 21.3969C92.8853 21.8365 92.7747 22.2687 92.566 22.6555ZM90.9851 22.4427C91.1258 22.3053 91.2351 22.139 91.3054 21.9554C91.3757 21.7717 91.4054 21.5749 91.3925 21.3787C91.3925 20.4058 90.8452 19.9255 89.7447 19.9255H88.1638V22.8197H89.769C90.2072 22.8499 90.6408 22.7155 90.9851 22.4427Z" fill="white"/>
<path d="M95.7337 18.1621V27.6108H94.2805V18.1621H95.7337Z" fill="white"/>
<path d="M97.6065 22.1814C97.8792 21.6561 98.2926 21.2171 98.8005 20.9132C99.3083 20.6094 99.8907 20.4527 100.482 20.4606C100.986 20.4502 101.484 20.5607 101.936 20.7829C102.32 20.9785 102.656 21.2568 102.921 21.5976V20.5762H104.392V27.611H102.921V26.5652C102.655 26.9146 102.311 27.1976 101.917 27.3921C101.466 27.6221 100.965 27.7369 100.458 27.7266C99.8718 27.7299 99.2964 27.5676 98.7982 27.2584C98.2811 26.9445 97.8604 26.4943 97.5822 25.9572C97.2818 25.3705 97.1294 24.7192 97.1383 24.0602C97.1354 23.4047 97.2963 22.7588 97.6065 22.1814ZM102.623 22.7894C102.439 22.4527 102.168 22.1714 101.838 21.9746C101.521 21.7891 101.16 21.6924 100.793 21.6949C100.426 21.6923 100.065 21.7867 99.7467 21.9685C99.4135 22.157 99.1396 22.435 98.9563 22.7711C98.7512 23.1584 98.6486 23.5917 98.6584 24.0298C98.6502 24.4735 98.7526 24.9123 98.9563 25.3066C99.1408 25.6534 99.4161 25.9434 99.7528 26.1457C100.068 26.3315 100.427 26.4301 100.793 26.4315C101.169 26.433 101.539 26.3305 101.861 26.1352C102.182 25.9399 102.444 25.6595 102.617 25.3248C102.813 24.931 102.915 24.497 102.915 24.0571C102.915 23.6172 102.813 23.1832 102.617 22.7894H102.623Z" fill="white"/>
<path d="M112.643 20.5762L108.326 30.9126H106.818L108.229 27.4955L105.456 20.5762H107.079L109.062 25.939L111.117 20.5762H112.643Z" fill="white"/>
<path d="M23.7435 14.6902C20.4723 12.8661 17.2072 11.042 13.9178 9.26049C13.6106 9.08581 13.2671 8.98454 12.9143 8.96459C12.5614 8.94464 12.2087 9.00656 11.8838 9.14549C11.5588 9.28442 11.2704 9.49662 11.041 9.76549C10.8116 10.0344 10.6475 10.3526 10.5615 10.6954C10.4618 10.927 10.4301 11.1822 10.4703 11.4311C10.4703 16.4291 10.4703 21.4251 10.4703 26.419C10.4348 26.6665 10.4685 26.919 10.5676 27.1486C10.6542 27.4846 10.8166 27.7963 11.0423 28.0599C11.268 28.3235 11.551 28.5319 11.8697 28.6692C12.1883 28.8066 12.5342 28.8691 12.8808 28.8522C13.2273 28.8352 13.5655 28.7392 13.8692 28.5714C17.189 26.7899 20.4723 24.9232 23.7678 23.1356C25.2089 22.3513 26.6742 21.6156 28.0788 20.7826C28.4218 20.6046 28.7093 20.3358 28.91 20.0056C29.1107 19.6753 29.2168 19.2963 29.2168 18.9099C29.2168 18.5234 29.1107 18.1444 28.91 17.8142C28.7093 17.4839 28.4218 17.2151 28.0788 17.0371C26.6377 16.2224 25.1785 15.4745 23.7435 14.6902Z" fill="#FEFEFE"/>
<path d="M10.5674 27.1483C10.4683 26.9187 10.4347 26.6662 10.4702 26.4186C10.4702 21.4207 10.4702 16.4247 10.4702 11.4308C10.4294 11.1839 10.4611 10.9305 10.5614 10.7012C11.0174 11.1085 11.4795 11.5159 11.9233 11.9172L19.2196 18.8487V18.9399C19.1345 19.0129 19.0372 19.0737 18.9582 19.1527L10.5674 27.1483Z" fill="#59C8FA"/>
<path d="M10.5674 27.1481L18.9825 19.1708C19.0615 19.0918 19.1588 19.031 19.2439 18.958C20.843 20.2592 22.1989 21.8157 23.7676 23.1473C20.4721 24.9714 17.1888 26.7955 13.869 28.5831C13.5644 28.7507 13.2255 28.8464 12.8782 28.8626C12.5309 28.8788 12.1845 28.8152 11.8657 28.6766C11.5468 28.538 11.264 28.3282 11.0389 28.0632C10.8139 27.7982 10.6525 27.4852 10.5674 27.1481Z" fill="#DC424E"/>
<path d="M19.244 18.8427L11.9477 11.9112C11.5038 11.4917 11.0417 11.0843 10.5857 10.6951C10.6698 10.3511 10.8328 10.0313 11.0616 9.76105C11.2905 9.49075 11.579 9.27732 11.9045 9.13759C12.2299 8.99786 12.5834 8.93565 12.937 8.95588C13.2905 8.9761 13.6346 9.0782 13.942 9.25413C17.2314 11.0356 20.4965 12.9023 23.7677 14.6838L19.244 18.8427Z" fill="#6DEA84"/>
<path d="M19.244 18.8432L23.7434 14.666C25.1784 15.4504 26.6376 16.1982 28.0482 17.0252C28.3912 17.2032 28.6788 17.4719 28.8795 17.8022C29.0802 18.1324 29.1863 18.5114 29.1863 18.8979C29.1863 19.2843 29.0802 19.6633 28.8795 19.9936C28.6788 20.3238 28.3912 20.5926 28.0482 20.7706C26.6437 21.6036 25.1784 22.3393 23.7373 23.1237C22.1686 21.7921 20.8127 20.2355 19.2136 18.9344L19.244 18.8432Z" fill="#F5C644"/>
</g>
</g>
</g>
<defs>
<clipPath id="clip0_79_9839">
<rect width="120" height="38.19" fill="white"/>
</clipPath>
<clipPath id="clip1_79_9839">
<rect width="120" height="38.19" fill="white"/>
</clipPath>
<clipPath id="clip2_79_9839">
<rect width="120" height="38.2023" fill="white" transform="translate(0 -0.00585938)"/>
</clipPath>
</defs>
</svg>
