<svg width="131" height="52" viewBox="0 0 131 52" fill="none" xmlns="http://www.w3.org/2000/svg">
<path opacity="0.964" fill-rule="evenodd" clip-rule="evenodd" d="M77.5469 3.75043C77.7234 3.75043 77.9007 3.75043 78.0773 3.75043C78.0773 10.1906 78.0773 16.6307 78.0773 23.0708C76.2073 23.0961 74.3388 23.0708 72.4705 22.9951C71.9235 21.324 70.888 20.0487 69.3641 19.1689C67.3991 18.5071 65.5303 18.7092 63.7574 19.775C62.7624 20.6666 62.131 21.7652 61.8633 23.0708C60.0013 23.0957 58.145 23.0704 56.2944 22.9951C56.7124 20.3783 57.7479 18.0295 59.4009 15.9488C62.3088 12.6197 65.8572 11.6474 70.046 13.0318C70.9976 13.4132 71.7932 14.0068 72.4327 14.8123C72.4579 11.8827 72.4832 8.95307 72.5084 6.02342C74.1981 5.27302 75.8778 4.51536 77.5469 3.75043Z" fill="#040404"/>
<path opacity="0.963" fill-rule="evenodd" clip-rule="evenodd" d="M102.777 3.75043C102.954 3.75043 103.131 3.75043 103.307 3.75043C103.307 10.1906 103.307 16.6307 103.307 23.0708C101.437 23.0961 99.5691 23.0708 97.7007 22.9951C97.1248 21.2446 96.0141 19.944 94.3669 19.0931C92.4675 18.5168 90.6741 18.7441 88.9875 19.775C87.9533 20.6444 87.3222 21.743 87.0934 23.0708C85.1992 23.0708 83.305 23.0708 81.4109 23.0708C82.0163 19.676 83.5816 16.8095 86.1084 14.4714C87.9647 12.9879 90.0733 12.3187 92.4349 12.4636C93.6055 12.5386 94.7299 12.8038 95.8065 13.2591C96.5179 13.6673 97.1362 14.185 97.6628 14.8123C97.6878 11.8827 97.7135 8.95307 97.7385 6.02342C99.4213 5.25696 101.101 4.4993 102.777 3.75043Z" fill="#030403"/>
<path fill-rule="evenodd" clip-rule="evenodd" d="M36.9361 6.47806C36.9361 6.50331 36.9361 6.52857 36.9361 6.55382C36.0017 6.55382 35.0672 6.55382 34.1328 6.55382C35.065 6.40786 35.9995 6.38261 36.9361 6.47806Z" fill="#656464"/>
<path opacity="0.995" fill-rule="evenodd" clip-rule="evenodd" d="M34.1328 6.55382C35.0672 6.55382 36.0017 6.55382 36.9361 6.55382C38.3189 6.61118 39.6827 6.78797 41.0275 7.08418C41.0527 7.08418 41.078 7.08418 41.1033 7.08418C41.1117 7.13096 41.1369 7.16884 41.179 7.19783C41.4832 7.26128 41.7862 7.32442 42.0882 7.38725C42.1135 7.38725 42.1388 7.38725 42.164 7.38725C42.3598 7.5367 42.5871 7.61243 42.8459 7.61455C43.3102 7.89647 43.8153 8.09854 44.3612 8.22068C44.4681 8.37516 44.6197 8.45093 44.8158 8.44798C44.9227 8.60246 45.0743 8.67823 45.2704 8.67528C45.3456 8.66224 45.396 8.68755 45.422 8.75104C45.5611 8.90924 45.7378 9.01024 45.9523 9.05411C46.0275 9.04108 46.0779 9.06638 46.1039 9.12987C46.1917 9.26246 46.318 9.33823 46.4827 9.35717C46.5705 9.48976 46.6968 9.56553 46.8615 9.58447C46.8974 9.691 46.9731 9.74154 47.0888 9.736C47.1247 9.84253 47.2004 9.89307 47.3161 9.88754C47.352 9.99406 47.4277 10.0446 47.5434 10.0391C47.6012 10.1726 47.7022 10.2483 47.8465 10.2664C47.8823 10.3729 47.9581 10.4234 48.0738 10.4179C48.1315 10.5514 48.2326 10.6272 48.3768 10.6452C48.4526 10.6704 48.5031 10.721 48.5284 10.7967C48.5642 10.9033 48.64 10.9538 48.7557 10.9483C48.8062 10.9483 48.8314 10.9735 48.8314 11.024C48.9137 11.1822 49.0399 11.2832 49.2103 11.3271C49.3636 11.5559 49.5656 11.7328 49.8164 11.8575C49.8669 12.0595 49.9932 12.1858 50.1952 12.2363C50.271 12.2615 50.3215 12.3121 50.3468 12.3878C50.5945 12.7621 50.8976 13.0904 51.256 13.3728C51.3256 13.5689 51.4519 13.7205 51.6348 13.8274C51.7044 14.0235 51.8307 14.1751 52.0136 14.282C52.0317 14.4262 52.1074 14.5273 52.2409 14.5851C52.259 14.7293 52.3347 14.8304 52.4682 14.8881C52.4627 15.0038 52.5132 15.0796 52.6198 15.1154C52.6142 15.2311 52.6648 15.3069 52.7713 15.3427C52.7893 15.487 52.8651 15.588 52.9986 15.6458C53.0621 15.6717 53.0874 15.7222 53.0744 15.7973C53.0688 15.913 53.1194 15.9888 53.2259 16.0246C53.2204 16.1403 53.2709 16.2161 53.3774 16.2519C53.4409 16.2778 53.4662 16.3283 53.4532 16.4034C53.4477 16.5191 53.4982 16.5949 53.6047 16.6307C53.6682 16.6567 53.6935 16.7071 53.6805 16.7823C53.7244 16.9968 53.8254 17.1735 53.9836 17.3126C54.0725 17.3895 54.123 17.4905 54.1351 17.6157C54.1493 17.7721 54.1871 17.9236 54.2487 18.0703C54.3562 18.2592 54.4699 18.436 54.5897 18.6007C54.6981 18.6976 54.7486 18.824 54.7412 18.9795C54.7603 19.2695 54.8613 19.522 55.0443 19.7372C55.1117 20.1665 55.238 20.5706 55.4231 20.9494C55.4049 21.1311 55.4554 21.2826 55.5746 21.404C55.6623 21.6141 55.7128 21.8414 55.7262 22.0859C55.7461 22.4852 55.8219 22.864 55.9535 23.2224C55.9535 23.3234 55.9535 23.4245 55.9535 23.5255C56.5596 23.5255 57.1657 23.5255 57.7719 23.5255C73.9859 23.5255 90.1999 23.5255 106.414 23.5255C106.414 25.8995 106.414 28.2735 106.414 30.6475C89.5884 30.6224 72.7683 30.6476 55.9535 30.7233C55.9013 30.6268 55.8381 30.6268 55.7641 30.7233C55.7015 30.9728 55.6636 31.2253 55.6504 31.4809C55.5278 31.7376 55.4521 32.0154 55.4231 32.3144C55.4434 32.4355 55.4181 32.5365 55.3473 32.6174C55.1379 33.0182 54.9863 33.4476 54.8928 33.9055C54.8928 33.9307 54.8928 33.956 54.8928 33.9812C54.7712 34.0409 54.7207 34.1419 54.7412 34.2843C54.4962 34.715 54.2941 35.1696 54.1351 35.6481C54.1481 35.7233 54.1228 35.7737 54.0593 35.7996C53.8757 35.9896 53.7494 36.2169 53.6805 36.4815C53.6935 36.5567 53.6682 36.6071 53.6047 36.6331C53.4982 36.6689 53.4477 36.7447 53.4532 36.8604C53.4662 36.9355 53.4409 36.986 53.3774 37.0119C53.2709 37.0477 53.2204 37.1235 53.2259 37.2392C53.0933 37.327 53.0175 37.4533 52.9986 37.618C52.8921 37.6539 52.8415 37.7296 52.8471 37.8453C52.7354 37.9162 52.6596 38.0173 52.6198 38.1484C52.4872 38.2362 52.4114 38.3625 52.3925 38.5272C52.3672 38.603 52.3167 38.6535 52.2409 38.6787C52.1344 38.7146 52.0839 38.7904 52.0894 38.906C52.0894 38.9566 52.0642 38.9818 52.0136 38.9818C51.9071 39.0177 51.8566 39.0934 51.8621 39.2091C51.8369 39.2849 51.7863 39.3354 51.7106 39.3606C51.5771 39.4184 51.5013 39.5195 51.4833 39.6637C51.4833 39.7142 51.458 39.7395 51.4075 39.7395C51.2246 39.8464 51.0983 39.9979 51.0287 40.1941C50.5488 40.7244 50.0437 41.2296 49.5133 41.7094C49.3976 41.7039 49.3219 41.7544 49.286 41.8609C49.2355 41.9619 49.1597 42.0377 49.0587 42.0882C48.9145 42.1063 48.8134 42.182 48.7557 42.3155C48.7557 42.3661 48.7304 42.3913 48.6799 42.3913C48.5357 42.4093 48.4346 42.4851 48.3768 42.6186C48.3768 42.6691 48.3516 42.6944 48.3011 42.6944C48.1854 42.6888 48.1096 42.7394 48.0738 42.8459C48.0738 42.8964 48.0486 42.9217 47.998 42.9217C47.8197 42.9853 47.6682 43.0864 47.5434 43.2247C47.5434 43.2753 47.5182 43.3005 47.4676 43.3005C47.352 43.295 47.2762 43.3455 47.2404 43.452C47.1805 43.5203 47.1047 43.5708 47.0131 43.6036C46.8483 43.6225 46.722 43.6983 46.6342 43.8309C46.5185 43.8253 46.4428 43.8759 46.4069 43.9824C46.3301 44.0713 46.2291 44.1218 46.1039 44.1339C45.7387 44.2532 45.4104 44.4299 45.1189 44.6643C44.9432 44.7016 44.7917 44.7773 44.6643 44.8916C44.2302 45.0106 43.8261 45.1874 43.452 45.422C43.2855 45.3932 43.1592 45.4437 43.0732 45.5735C42.9 45.5807 42.7485 45.6312 42.6186 45.725C42.4521 45.6962 42.3258 45.7468 42.2398 45.8766C42.2145 45.8766 42.1892 45.8766 42.164 45.8766C41.0236 46.1499 39.8872 46.4024 38.7545 46.6342C38.2103 46.6545 37.6799 46.7051 37.1634 46.7857C36.021 46.8097 34.8845 46.7845 33.7539 46.71C33.0618 46.5423 32.3546 46.416 31.6325 46.3312C30.9395 46.1071 30.2323 45.9051 29.511 45.725C29.3812 45.6312 29.2296 45.5807 29.0564 45.5735C28.9122 45.5511 28.7859 45.5005 28.6776 45.422C28.5506 45.2451 28.3739 45.1693 28.1472 45.1947C28.0503 45.0862 27.9239 45.0357 27.7684 45.0431C27.6845 44.8561 27.533 44.7803 27.3138 44.8158C27.237 44.7269 27.136 44.6764 27.0107 44.6643C26.7846 44.6017 26.5826 44.5007 26.4046 44.3612C26.3168 44.2286 26.1905 44.1529 26.0258 44.1339C25.9506 44.147 25.9002 44.1217 25.8742 44.0582C25.8384 43.9516 25.7626 43.9011 25.6469 43.9066C25.5718 43.9197 25.5213 43.8944 25.4954 43.8309C25.4596 43.7243 25.3838 43.6738 25.2681 43.6793C25.2323 43.5728 25.1565 43.5223 25.0408 43.5278C25.005 43.4213 24.9292 43.3707 24.8135 43.3763C24.7777 43.2697 24.7019 43.2192 24.5862 43.2247C24.5285 43.0912 24.4274 43.0155 24.2831 42.9974C24.2473 42.8909 24.1715 42.8404 24.0559 42.8459C23.9736 42.6878 23.8474 42.5868 23.677 42.5428C23.5948 42.3847 23.4686 42.2837 23.2982 42.2398C23.1913 42.0569 23.0397 41.9306 22.8436 41.8609C22.5108 41.4523 22.132 41.0987 21.7071 40.8002C21.5808 40.7244 21.4798 40.6234 21.404 40.4971C21.3088 40.2754 21.1573 40.0985 20.9494 39.9668C20.8737 39.9415 20.8231 39.891 20.7979 39.8152C20.6986 39.59 20.5471 39.4132 20.3433 39.2849C20.3488 39.1692 20.2983 39.0934 20.1918 39.0576C20.116 39.0324 20.0655 38.9818 20.0402 38.906C20.0458 38.7904 19.9952 38.7146 19.8887 38.6787C19.8707 38.5345 19.7949 38.4334 19.6614 38.3757C19.6669 38.26 19.6164 38.1842 19.5099 38.1484C19.4462 37.9701 19.3452 37.8186 19.2068 37.6938C19.2123 37.5781 19.1618 37.5023 19.0553 37.4665C19.0608 37.3508 19.0103 37.275 18.9037 37.2392C18.8599 37.0247 18.7589 36.8479 18.6007 36.7088C18.5568 36.4943 18.4558 36.3176 18.2976 36.1785C18.2855 36.0532 18.235 35.9522 18.1461 35.8754C18.0372 35.5473 17.8857 35.2443 17.6915 34.9662C17.5326 34.4381 17.3306 33.933 17.0853 33.4509C17.1036 33.2692 17.0531 33.1177 16.9338 32.9963C16.3126 30.8828 15.9842 28.7235 15.9489 26.5183C15.9688 25.7728 15.994 25.0278 16.0246 24.2831C16.0246 24.2579 16.0246 24.2326 16.0246 24.2074C16.2174 23.2295 16.4194 22.2446 16.6307 21.2525C16.7386 21.0998 16.7891 20.9231 16.7823 20.7221C16.9668 20.4525 17.0678 20.1495 17.0853 19.8129C17.2486 19.6525 17.3244 19.4505 17.3126 19.2068C17.4211 19.1098 17.4716 18.9835 17.4642 18.828C17.4511 18.7528 17.4765 18.7023 17.5399 18.6764C17.6484 18.5795 17.6989 18.4531 17.6915 18.2976C17.7036 18.1724 17.7541 18.0714 17.843 17.9945C17.9573 17.8672 18.033 17.7156 18.0703 17.5399C18.0573 17.4648 18.0826 17.4143 18.1461 17.3884C18.235 17.3116 18.2855 17.2106 18.2976 17.0853C18.4536 16.952 18.5546 16.7752 18.6007 16.555C18.7646 16.379 18.8909 16.177 18.9795 15.9488C18.9665 15.8737 18.9918 15.8232 19.0553 15.7973C19.1618 15.7615 19.2123 15.6857 19.2068 15.57C19.3133 15.5342 19.3639 15.4584 19.3583 15.3427C19.4918 15.285 19.5676 15.1839 19.5856 15.0396C19.6922 15.0038 19.7427 14.928 19.7372 14.8123C19.9254 14.6381 20.0769 14.436 20.1918 14.2062C20.3747 14.0993 20.501 13.9478 20.5706 13.7516C21.2251 13.0718 21.8818 12.3899 22.5405 11.7059C22.6415 11.6554 22.7173 11.5796 22.7678 11.4786C22.964 11.409 23.1155 11.2827 23.2224 11.0998C23.3928 11.0559 23.519 10.9549 23.6013 10.7967C23.8703 10.6747 24.0976 10.4979 24.2831 10.2664C24.3988 10.2719 24.4746 10.2214 24.5104 10.1148C24.5463 10.0083 24.6221 9.95777 24.7377 9.9633C24.916 9.89966 25.0676 9.79859 25.1923 9.66024C25.2282 9.55371 25.3039 9.50317 25.4196 9.50871C25.5353 9.51424 25.6111 9.4637 25.6469 9.35717C25.8614 9.3133 26.0382 9.21231 26.1773 9.05411C26.3026 9.04198 26.4035 8.99152 26.4804 8.90257C26.5063 8.83908 26.5567 8.81378 26.6319 8.82681C26.7476 8.83234 26.8234 8.7818 26.8592 8.67528C27.065 8.68391 27.2165 8.60815 27.3138 8.44798C27.4694 8.4554 27.5957 8.40487 27.6926 8.29644C27.8683 8.25917 28.0199 8.1834 28.1472 8.06914C28.2556 7.99057 28.3819 7.94004 28.5261 7.91761C29.0588 7.79911 29.5639 7.62227 30.0414 7.38725C30.4326 7.39633 30.7861 7.29531 31.1021 7.08418C31.4522 7.06598 31.7805 6.99022 32.0871 6.85688C32.7828 6.78022 33.4647 6.6792 34.1328 6.55382ZM34.5874 12.009C35.5976 12.009 36.6078 12.009 37.618 12.009C37.9547 12.1076 38.3082 12.1581 38.6788 12.1605C38.6872 12.2073 38.7124 12.2452 38.7545 12.2742C39.4559 12.4339 40.1378 12.6485 40.8002 12.9182C41.1285 13.1583 41.4821 13.3604 41.8609 13.5243C41.8968 13.6308 41.9725 13.6814 42.0882 13.6759C42.1241 13.7824 42.1998 13.8329 42.3155 13.8274C42.4493 14.0326 42.6261 14.1841 42.8459 14.282C43.2484 14.7098 43.6524 15.1391 44.0582 15.57C44.3615 16.0489 44.6898 16.5035 45.0431 16.9338C45.3495 17.5965 45.6525 18.2531 45.9523 18.9037C46 19.1232 46.0757 19.3253 46.1796 19.5099C46.2584 19.8763 46.3594 20.2299 46.4827 20.5706C46.5769 21.0799 46.6779 21.585 46.7858 22.0859C46.7858 22.1111 46.7858 22.1365 46.7858 22.1617C46.8839 22.8378 46.9471 23.5197 46.9752 24.2074C47.0131 26.0508 47.0257 27.8945 47.0131 29.7383C41.381 29.7257 35.7491 29.7383 30.1172 29.7762C30.0171 30.0743 30.0171 30.3647 30.1172 30.6475C30.0877 30.8788 30.1381 31.0809 30.2687 31.2536C30.2484 31.3748 30.2737 31.4758 30.3445 31.5567C30.6668 32.5567 31.2477 33.3648 32.0871 33.9812C32.2232 34.1631 32.4 34.2894 32.6174 34.3601C32.6174 34.4106 32.6427 34.4358 32.6932 34.4358C32.8993 34.5894 33.1266 34.7156 33.3751 34.8147C33.4347 34.9362 33.5357 34.9867 33.6782 34.9662C33.7319 35.0347 33.8077 35.0599 33.9055 35.042C34.3928 35.2962 34.9232 35.4225 35.4966 35.4208C35.713 35.5349 35.9529 35.5854 36.2163 35.5723C36.5266 35.5776 36.817 35.5271 37.0877 35.4208C37.7731 35.4408 38.4045 35.2893 38.9818 34.9662C39.0975 34.9717 39.1733 34.9212 39.2091 34.8147C39.768 34.6092 40.2226 34.2557 40.5729 33.7539C40.6309 33.8382 40.7066 33.8887 40.8002 33.9055C40.957 34.1383 41.159 34.3151 41.4063 34.4358C41.7119 34.8172 42.0655 35.1455 42.4671 35.4208C42.4923 35.4966 42.5428 35.5471 42.6186 35.5723C42.901 35.9307 43.2293 36.2338 43.6036 36.4815C43.6541 36.5825 43.7299 36.6583 43.8309 36.7088C43.9457 36.8366 44.0468 36.9754 44.1339 37.1255C44.0977 37.2243 44.0472 37.3126 43.9824 37.3907C43.7771 37.5959 43.6004 37.8232 43.452 38.0726C43.2211 38.2531 43.019 38.4551 42.8459 38.6787C42.3402 39.0325 41.835 39.3861 41.3306 39.7395C41.0329 39.8632 40.7551 40.0147 40.4971 40.1941C40.3239 40.2013 40.1724 40.2518 40.0425 40.3456C39.381 40.5231 38.7244 40.6998 38.0726 40.876C37.854 40.8528 37.652 40.878 37.4665 40.9517C36.2277 40.9671 34.9901 40.9418 33.7539 40.876C33.1655 40.7128 32.5594 40.5865 31.9356 40.4971C31.769 40.3534 31.567 40.2776 31.3294 40.2698C31.17 40.1629 30.9932 40.0871 30.7991 40.0425C30.607 39.9276 30.4049 39.8266 30.1929 39.7395C29.8273 39.4934 29.4484 39.2661 29.0564 39.0576C28.9495 38.8747 28.798 38.7484 28.6018 38.6787C28.6018 38.6282 28.5766 38.603 28.5261 38.603C28.215 38.26 27.8867 37.9317 27.5411 37.618C27.4674 37.4184 27.3411 37.2668 27.1623 37.1634C27.1342 36.9538 27.0332 36.8022 26.8592 36.7088C26.8312 36.4992 26.7301 36.3476 26.5561 36.2542C26.5767 36.1118 26.5261 36.0108 26.4046 35.9512C26.3437 35.7283 26.2426 35.5262 26.1015 35.345C26.0294 35.1028 25.9284 34.8755 25.7985 34.6631C25.7985 34.6379 25.7985 34.6126 25.7985 34.5874C25.7406 34.3966 25.6648 34.2198 25.5712 34.057C25.5406 33.8308 25.4649 33.6288 25.3439 33.4509C25.336 33.17 25.2602 32.9175 25.1166 32.6932C25.0951 32.1569 24.994 31.6518 24.8135 31.1779C24.6723 30.1731 24.5965 29.1628 24.5862 28.1472C24.5267 26.8862 24.5267 25.6234 24.5862 24.3589C24.6444 24.3011 24.6823 24.2253 24.6999 24.1316C24.7376 23.8803 24.7502 23.6278 24.7377 23.3739C24.7377 23.3487 24.7377 23.3234 24.7377 23.2982C24.8451 22.7508 24.9461 22.1952 25.0408 21.6313C25.1553 21.4007 25.2058 21.1481 25.1923 20.8737C25.3743 20.5563 25.5006 20.2027 25.5712 19.8129C25.8319 19.2543 26.0592 18.6734 26.2531 18.0703C26.3704 18.046 26.4209 17.9702 26.4046 17.843C26.5607 17.6354 26.6869 17.4081 26.7834 17.1611C26.9896 16.904 27.1664 16.6261 27.3138 16.3277C27.5845 16.0137 27.837 15.6853 28.0715 15.3427C28.3998 15.0649 28.7028 14.7618 28.9807 14.4335C29.3115 14.2429 29.6145 14.0156 29.8899 13.7516C30.0895 13.6523 30.2663 13.526 30.4202 13.3728C30.7494 13.271 31.0525 13.1195 31.3294 12.9182C31.7066 12.8097 32.0601 12.6582 32.3901 12.4636C32.612 12.4587 32.8141 12.4081 32.9963 12.3121C33.3362 12.2538 33.6645 12.178 33.9812 12.0848C34.1998 12.1079 34.4019 12.0827 34.5874 12.009Z" fill="#080505"/>
<path opacity="0.412" fill-rule="evenodd" clip-rule="evenodd" d="M34.1327 6.55382C33.4647 6.6792 32.7828 6.78022 32.087 6.85688C32.7451 6.66389 33.427 6.56287 34.1327 6.55382Z" fill="#8B8A8A"/>
<path opacity="0.325" fill-rule="evenodd" clip-rule="evenodd" d="M36.9361 6.55379C36.9361 6.52854 36.9361 6.50328 36.9361 6.47802C38.3416 6.47037 39.7054 6.67241 41.0275 7.08415C39.6827 6.78794 38.3189 6.61115 36.9361 6.55379Z" fill="#858484"/>
<path opacity="0.308" fill-rule="evenodd" clip-rule="evenodd" d="M32.0871 6.85689C31.7804 6.99022 31.4522 7.06599 31.1021 7.08419C31.4063 6.94226 31.7347 6.86649 32.0871 6.85689Z" fill="#858383"/>
<path opacity="0.337" fill-rule="evenodd" clip-rule="evenodd" d="M41.1033 7.08417C41.4576 7.1281 41.7859 7.22913 42.0882 7.38723C41.7862 7.32441 41.4832 7.26126 41.179 7.19782C41.1369 7.16883 41.1117 7.13095 41.1033 7.08417Z" fill="#7D7B7B"/>
<path fill-rule="evenodd" clip-rule="evenodd" d="M31.102 7.08417C30.786 7.29529 30.4325 7.39632 30.0413 7.38723C30.3666 7.21723 30.7202 7.11621 31.102 7.08417Z" fill="#535252"/>
<path fill-rule="evenodd" clip-rule="evenodd" d="M37.0876 7.53877C36.1013 7.5266 35.1164 7.55186 34.1328 7.61454C34.2428 7.55378 34.369 7.5159 34.5116 7.50089C35.3835 7.43831 36.2422 7.45094 37.0876 7.53877Z" fill="#530A0D"/>
<path opacity="0.38" fill-rule="evenodd" clip-rule="evenodd" d="M42.1639 7.38724C42.4128 7.41967 42.6401 7.49544 42.8458 7.61454C42.587 7.61242 42.3597 7.53669 42.1639 7.38724Z" fill="#8F8D8D"/>
<path opacity="0.835" fill-rule="evenodd" clip-rule="evenodd" d="M30.0413 7.38724C29.5638 7.62226 29.0587 7.7991 28.526 7.9176C28.9957 7.65833 29.5008 7.48156 30.0413 7.38724Z" fill="#747272"/>
<path fill-rule="evenodd" clip-rule="evenodd" d="M37.0876 7.53877C37.4685 7.53899 37.8473 7.56425 38.2241 7.61453C38.2558 7.66924 38.3063 7.70712 38.3757 7.72818C38.8294 7.78114 39.284 7.81903 39.7395 7.84183C40.2805 7.9198 40.8109 8.04602 41.3305 8.22066C41.5084 8.34166 41.7104 8.41743 41.9367 8.44796C47.0548 10.1837 50.8557 13.4669 53.3395 18.2976C54.1032 19.8625 54.621 21.5042 54.8927 23.2224C54.9345 23.473 54.9597 23.7255 54.9685 23.9801C71.9022 24.0855 88.8489 24.136 105.808 24.1316C105.808 26.1268 105.808 28.122 105.808 30.1171C88.836 30.1045 71.8644 30.1171 54.8927 30.155C71.8896 30.1929 88.8868 30.2056 105.883 30.1929C105.883 30.2181 105.883 30.2434 105.883 30.2687C88.861 30.2687 71.8392 30.2687 54.817 30.2687C54.7785 30.599 54.7281 30.9273 54.6654 31.2536C54.6187 31.262 54.5808 31.2873 54.5518 31.3294C54.499 31.555 54.4612 31.7823 54.4381 32.0113C54.4129 32.1123 54.3876 32.2134 54.3624 32.3144C54.2305 32.4579 54.1547 32.6347 54.1351 32.8447C51.851 39.0306 47.5576 43.1093 41.2548 45.081C40.7498 45.2032 40.2447 45.3169 39.7395 45.4219C38.8877 45.4589 38.0543 45.5599 37.2392 45.725C35.5632 45.748 33.8964 45.647 32.2386 45.4219C32.1577 45.3512 32.0567 45.3259 31.9355 45.3462C31.8009 45.2628 31.6494 45.1996 31.4809 45.1568C31.5567 45.1315 31.6325 45.1062 31.7082 45.081C31.5781 45.0548 31.4518 45.0169 31.3294 44.9673C31.2789 45.0179 31.2284 45.0683 31.1779 45.1189C30.9869 45.0215 30.7849 44.971 30.5717 44.9673C30.0264 44.8361 29.4961 44.6593 28.9806 44.437C28.8645 44.3048 28.713 44.229 28.526 44.2097C25.0132 42.7054 22.1973 40.3567 20.0781 37.1634C19.1917 35.8108 18.4972 34.3713 17.9945 32.8447C17.9317 32.5936 17.8686 32.341 17.8051 32.0871C17.7761 32.0449 17.7382 32.0197 17.6915 32.0113C17.6983 31.8104 17.6478 31.6336 17.5399 31.4809C17.0041 29.2432 16.8273 26.9702 17.0096 24.662C17.1335 24.3809 17.184 24.0778 17.1611 23.7528C17.1611 23.677 17.1611 23.6012 17.1611 23.5255C17.2158 23.4938 17.2537 23.4433 17.2747 23.3739C17.3462 22.9703 17.4094 22.5663 17.4642 22.1617C19.1346 15.9317 22.9229 11.4994 28.8291 8.86468C29.8765 8.4197 30.9625 8.10398 32.0871 7.9176C32.5321 7.876 32.9615 7.80024 33.3751 7.6903C33.6119 7.61612 33.8644 7.59082 34.1327 7.61453C35.1163 7.55185 36.1013 7.52659 37.0876 7.53877ZM34.5873 12.009C35.5975 12.009 36.6078 12.009 37.618 12.009C37.9546 12.1076 38.3082 12.1581 38.6787 12.1605C38.6871 12.2073 38.7124 12.2451 38.7545 12.2742C39.4559 12.4339 40.1378 12.6485 40.8002 12.9182C41.1285 13.1583 41.4821 13.3604 41.8609 13.5243C41.8968 13.6308 41.9725 13.6814 42.0882 13.6758C42.124 13.7824 42.1998 13.8329 42.3155 13.8274C42.4493 14.0325 42.6261 14.1841 42.8459 14.282C43.2483 14.7097 43.6524 15.1391 44.0581 15.57C44.3614 16.0489 44.6897 16.5035 45.0431 16.9338C45.3494 17.5964 45.6525 18.253 45.9523 18.9037C46 19.1232 46.0757 19.3253 46.1796 19.5099C46.2584 19.8763 46.3594 20.2299 46.4827 20.5706C46.5769 21.0799 46.6779 21.5849 46.7857 22.0859C46.7857 22.1111 46.7857 22.1364 46.7857 22.1617C46.8839 22.8378 46.947 23.5197 46.9751 24.2074C47.013 26.0508 47.0257 27.8945 47.013 29.7383C41.381 29.7257 35.7491 29.7383 30.1171 29.7762C30.017 30.0743 30.017 30.3647 30.1171 30.6475C30.0877 30.8788 30.1381 31.0809 30.2687 31.2536C30.2484 31.3748 30.2737 31.4758 30.3444 31.5567C30.6668 32.5567 31.2476 33.3648 32.0871 33.9812C32.2231 34.1631 32.4 34.2894 32.6174 34.3601C32.6174 34.4106 32.6427 34.4358 32.6932 34.4358C32.8993 34.5894 33.1266 34.7156 33.3751 34.8147C33.4347 34.9362 33.5357 34.9867 33.6781 34.9662C33.7319 35.0347 33.8076 35.0599 33.9054 35.042C34.3928 35.2962 34.9231 35.4225 35.4965 35.4208C35.7129 35.5349 35.9529 35.5853 36.2163 35.5723C36.5266 35.5775 36.817 35.5271 37.0876 35.4208C37.7731 35.4408 38.4045 35.2893 38.9818 34.9662C39.0975 34.9717 39.1733 34.9212 39.2091 34.8147C39.7679 34.6092 40.2225 34.2556 40.5729 33.7539C40.6308 33.8382 40.7066 33.8887 40.8002 33.9055C40.9569 34.1383 41.159 34.3151 41.4063 34.4358C41.7119 34.8172 42.0655 35.1455 42.467 35.4208C42.4923 35.4966 42.5428 35.5471 42.6186 35.5723C42.901 35.9307 43.2293 36.2338 43.6035 36.4815C43.6541 36.5825 43.7298 36.6583 43.8308 36.7088C43.9457 36.8366 44.0468 36.9754 44.1339 37.1255C44.0977 37.2243 44.0472 37.3126 43.9824 37.3907C43.7771 37.5959 43.6004 37.8232 43.452 38.0726C43.2211 38.2531 43.019 38.4551 42.8459 38.6787C42.3401 39.0325 41.835 39.3861 41.3305 39.7395C41.0329 39.8632 40.755 40.0147 40.4971 40.1941C40.3239 40.2013 40.1724 40.2518 40.0425 40.3456C39.3809 40.523 38.7243 40.6998 38.0726 40.876C37.854 40.8528 37.6519 40.878 37.4665 40.9517C36.2277 40.9671 34.9901 40.9418 33.7539 40.876C33.1655 40.7128 32.5594 40.5865 31.9355 40.4971C31.769 40.3534 31.567 40.2776 31.3294 40.2698C31.17 40.1628 30.9932 40.0871 30.799 40.0425C30.607 39.9276 30.4049 39.8266 30.1929 39.7395C29.8272 39.4934 29.4484 39.2661 29.0564 39.0576C28.9495 38.8747 28.798 38.7484 28.6018 38.6787C28.6018 38.6282 28.5766 38.603 28.526 38.603C28.215 38.26 27.8866 37.9317 27.5411 37.618C27.4674 37.4184 27.3411 37.2668 27.1622 37.1634C27.1342 36.9538 27.0331 36.8022 26.8592 36.7088C26.8311 36.4992 26.7301 36.3476 26.5561 36.2542C26.5766 36.1118 26.5261 36.0108 26.4046 35.9511C26.3437 35.7282 26.2426 35.5262 26.1015 35.345C26.0294 35.1028 25.9284 34.8755 25.7985 34.6631C25.7985 34.6379 25.7985 34.6126 25.7985 34.5874C25.7406 34.3966 25.6648 34.2198 25.5712 34.057C25.5406 33.8308 25.4649 33.6288 25.3439 33.4509C25.336 33.17 25.2602 32.9175 25.1166 32.6932C25.095 32.1569 24.994 31.6518 24.8135 31.1779C24.6723 30.1731 24.5965 29.1628 24.5862 28.1472C24.5267 26.8862 24.5267 25.6234 24.5862 24.3589C24.6444 24.3011 24.6823 24.2253 24.6998 24.1316C24.7376 23.8803 24.7502 23.6278 24.7377 23.3739C24.7377 23.3487 24.7377 23.3234 24.7377 23.2982C24.8451 22.7508 24.9461 22.1952 25.0408 21.6313C25.1553 21.4007 25.2058 21.1481 25.1923 20.8736C25.3742 20.5563 25.5005 20.2027 25.5712 19.8129C25.8319 19.2543 26.0592 18.6734 26.253 18.0703C26.3703 18.046 26.4209 17.9702 26.4046 17.843C26.5607 17.6354 26.6869 17.4081 26.7834 17.1611C26.9896 16.9039 27.1663 16.6261 27.3138 16.3277C27.5845 16.0137 27.837 15.6853 28.0714 15.3427C28.3997 15.0649 28.7028 14.7618 28.9806 14.4335C29.3114 14.2429 29.6145 14.0156 29.8898 13.7516C30.0895 13.6523 30.2663 13.526 30.4202 13.3728C30.7494 13.271 31.0525 13.1195 31.3294 12.9182C31.7066 12.8097 32.0601 12.6581 32.3901 12.4636C32.612 12.4587 32.814 12.4081 32.9963 12.312C33.3361 12.2538 33.6645 12.178 33.9812 12.0847C34.1998 12.1079 34.4019 12.0827 34.5873 12.009Z" fill="#EA1E25"/>
<path fill-rule="evenodd" clip-rule="evenodd" d="M38.2241 7.61455C38.7454 7.64925 39.2505 7.72502 39.7394 7.84185C39.284 7.81904 38.8294 7.78116 38.3757 7.7282C38.3063 7.70713 38.2558 7.66925 38.2241 7.61455Z" fill="#8B1216"/>
<path opacity="0.349" fill-rule="evenodd" clip-rule="evenodd" d="M42.8459 7.61455C43.3869 7.74403 43.8921 7.94603 44.3612 8.22068C43.8153 8.09854 43.3102 7.89647 42.8459 7.61455Z" fill="#878585"/>
<path fill-rule="evenodd" clip-rule="evenodd" d="M33.3751 7.69031C32.9615 7.80024 32.5321 7.87601 32.087 7.91761C32.1187 7.8629 32.1692 7.82502 32.2386 7.80396C32.6147 7.73486 32.9935 7.69698 33.3751 7.69031Z" fill="#750F13"/>
<path opacity="0.086" fill-rule="evenodd" clip-rule="evenodd" d="M28.1472 8.06914C28.0199 8.1834 27.8683 8.25917 27.6926 8.29644C27.7995 8.14196 27.9511 8.06619 28.1472 8.06914Z" fill="#949393"/>
<path opacity="0.404" fill-rule="evenodd" clip-rule="evenodd" d="M27.6926 8.29644C27.5956 8.40487 27.4693 8.4554 27.3138 8.44798C27.4108 8.33956 27.5371 8.28902 27.6926 8.29644Z" fill="#8F8D8D"/>
<path opacity="0.427" fill-rule="evenodd" clip-rule="evenodd" d="M44.3612 8.22066C44.5369 8.25793 44.6884 8.3337 44.8158 8.44796C44.6196 8.45091 44.4681 8.37514 44.3612 8.22066Z" fill="#8B8A8A"/>
<path fill-rule="evenodd" clip-rule="evenodd" d="M41.3306 8.22066C41.5682 8.22846 41.7702 8.30423 41.9367 8.44796C41.7105 8.41742 41.5085 8.34166 41.3306 8.22066Z" fill="#851115"/>
<path opacity="0.451" fill-rule="evenodd" clip-rule="evenodd" d="M44.8158 8.44797C44.9915 8.48524 45.143 8.56101 45.2704 8.67527C45.0742 8.67822 44.9227 8.60246 44.8158 8.44797Z" fill="#828181"/>
<path opacity="0.404" fill-rule="evenodd" clip-rule="evenodd" d="M27.3137 8.44797C27.2164 8.60814 27.0649 8.6839 26.8591 8.67527C26.9865 8.56101 27.138 8.48524 27.3137 8.44797Z" fill="#7F7D7D"/>
<path opacity="0.804" fill-rule="evenodd" clip-rule="evenodd" d="M26.8591 8.67526C26.8233 8.78179 26.7475 8.83232 26.6318 8.82679C26.6677 8.72026 26.7434 8.66973 26.8591 8.67526Z" fill="#787676"/>
<path opacity="0.035" fill-rule="evenodd" clip-rule="evenodd" d="M45.4219 8.75104C45.6364 8.79491 45.8132 8.8959 45.9523 9.0541C45.7378 9.01023 45.561 8.90924 45.4219 8.75104Z" fill="#939191"/>
<path opacity="0.557" fill-rule="evenodd" clip-rule="evenodd" d="M26.4804 8.90257C26.4035 8.99152 26.3025 9.04198 26.1773 9.0541C26.2369 8.93257 26.3379 8.88203 26.4804 8.90257Z" fill="#969595"/>
<path opacity="0.016" fill-rule="evenodd" clip-rule="evenodd" d="M46.1038 9.12988C46.2685 9.14882 46.3948 9.22459 46.4826 9.35718C46.3179 9.33824 46.1916 9.26247 46.1038 9.12988Z" fill="#9D9B9B"/>
<path opacity="0.463" fill-rule="evenodd" clip-rule="evenodd" d="M26.1772 9.05408C26.0381 9.21228 25.8613 9.31327 25.6469 9.35714C25.786 9.19894 25.9627 9.09795 26.1772 9.05408Z" fill="#939292"/>
<path opacity="0.62" fill-rule="evenodd" clip-rule="evenodd" d="M25.6469 9.35716C25.6111 9.46369 25.5353 9.51422 25.4196 9.50869C25.4555 9.40216 25.5312 9.35163 25.6469 9.35716Z" fill="#858484"/>
<path opacity="0.247" fill-rule="evenodd" clip-rule="evenodd" d="M46.4826 9.35715C46.6473 9.37609 46.7736 9.45186 46.8614 9.58445C46.6967 9.5655 46.5704 9.48974 46.4826 9.35715Z" fill="#939191"/>
<path opacity="0.137" fill-rule="evenodd" clip-rule="evenodd" d="M46.8615 9.58447C46.9771 9.57894 47.0529 9.62948 47.0887 9.736C46.9731 9.74153 46.8973 9.691 46.8615 9.58447Z" fill="#979595"/>
<path opacity="0.247" fill-rule="evenodd" clip-rule="evenodd" d="M25.1923 9.66022C25.0675 9.79857 24.9159 9.89964 24.7377 9.96328C24.8363 9.78735 24.9879 9.68636 25.1923 9.66022Z" fill="#818080"/>
<path opacity="0.063" fill-rule="evenodd" clip-rule="evenodd" d="M47.0887 9.73599C47.2044 9.73046 47.2802 9.78099 47.316 9.88752C47.2003 9.89305 47.1246 9.84252 47.0887 9.73599Z" fill="#A09E9E"/>
<path opacity="0.149" fill-rule="evenodd" clip-rule="evenodd" d="M47.3161 9.88751C47.4318 9.88198 47.5076 9.93251 47.5434 10.039C47.4277 10.0446 47.3519 9.99404 47.3161 9.88751Z" fill="#979595"/>
<path opacity="0.075" fill-rule="evenodd" clip-rule="evenodd" d="M47.5434 10.0391C47.6877 10.0571 47.7887 10.1329 47.8465 10.2664C47.7022 10.2483 47.6011 10.1726 47.5434 10.0391Z" fill="#8B8989"/>
<path opacity="0.729" fill-rule="evenodd" clip-rule="evenodd" d="M24.5104 10.1148C24.4746 10.2213 24.3988 10.2719 24.2831 10.2664C24.319 10.1598 24.3947 10.1093 24.5104 10.1148Z" fill="#7D7C7C"/>
<path opacity="0.075" fill-rule="evenodd" clip-rule="evenodd" d="M47.8464 10.2663C47.9621 10.2608 48.0379 10.3113 48.0737 10.4179C47.958 10.4234 47.8823 10.3729 47.8464 10.2663Z" fill="#9B9999"/>
<path opacity="0.043" fill-rule="evenodd" clip-rule="evenodd" d="M48.0737 10.4179C48.218 10.4359 48.3191 10.5117 48.3768 10.6452C48.2325 10.6272 48.1315 10.5514 48.0737 10.4179Z" fill="#999797"/>
<path opacity="0.475" fill-rule="evenodd" clip-rule="evenodd" d="M24.2831 10.2664C24.0975 10.4979 23.8702 10.6747 23.6012 10.7967C23.7867 10.5652 24.014 10.3884 24.2831 10.2664Z" fill="#7F7E7E"/>
<path opacity="0.153" fill-rule="evenodd" clip-rule="evenodd" d="M48.5284 10.7967C48.6441 10.7912 48.7198 10.8417 48.7557 10.9483C48.64 10.9538 48.5642 10.9033 48.5284 10.7967Z" fill="#929090"/>
<path opacity="0.765" fill-rule="evenodd" clip-rule="evenodd" d="M23.6012 10.7967C23.519 10.9548 23.3927 11.0558 23.2224 11.0998C23.3046 10.9417 23.4308 10.8407 23.6012 10.7967Z" fill="#6A6969"/>
<path opacity="0.043" fill-rule="evenodd" clip-rule="evenodd" d="M48.8314 11.024C49.0018 11.068 49.128 11.169 49.2103 11.3271C49.0399 11.2832 48.9136 11.1822 48.8314 11.024Z" fill="#918F8F"/>
<path opacity="0.804" fill-rule="evenodd" clip-rule="evenodd" d="M23.2224 11.0998C23.1155 11.2827 22.964 11.409 22.7678 11.4786C22.8747 11.2957 23.0263 11.1694 23.2224 11.0998Z" fill="#757373"/>
<path opacity="0.565" fill-rule="evenodd" clip-rule="evenodd" d="M49.2102 11.3271C49.459 11.4496 49.6611 11.6263 49.8163 11.8574C49.5655 11.7327 49.3635 11.5559 49.2102 11.3271Z" fill="#8B8989"/>
<path opacity="0.353" fill-rule="evenodd" clip-rule="evenodd" d="M22.7678 11.4786C22.7172 11.5796 22.6415 11.6554 22.5405 11.7059C22.5405 11.5544 22.6162 11.4786 22.7678 11.4786Z" fill="#8A8989"/>
<path opacity="0.141" fill-rule="evenodd" clip-rule="evenodd" d="M37.6179 12.009C36.6077 12.009 35.5975 12.009 34.5873 12.009C34.6973 11.9482 34.8235 11.9103 34.9661 11.8953C35.749 11.8448 36.532 11.8448 37.3149 11.8953C37.4329 11.9112 37.5339 11.9491 37.6179 12.009Z" fill="#F08487"/>
<path opacity="0.722" fill-rule="evenodd" clip-rule="evenodd" d="M49.8164 11.8575C49.9679 11.9584 50.0942 12.0848 50.1952 12.2363C49.9932 12.1857 49.8669 12.0595 49.8164 11.8575Z" fill="#6D6B6B"/>
<path fill-rule="evenodd" clip-rule="evenodd" d="M37.618 12.009C37.9473 11.9964 38.2756 12.0091 38.6029 12.0469C38.6451 12.0759 38.6703 12.1138 38.6787 12.1605C38.3081 12.1581 37.9546 12.1076 37.618 12.009Z" fill="#EF6969"/>
<path opacity="0.153" fill-rule="evenodd" clip-rule="evenodd" d="M33.9812 12.0848C33.6645 12.178 33.3362 12.2538 32.9963 12.3121C33.0047 12.2653 33.0299 12.2274 33.072 12.1984C33.3706 12.1215 33.6736 12.0836 33.9812 12.0848Z" fill="#EF8083"/>
<path opacity="0.694" fill-rule="evenodd" clip-rule="evenodd" d="M22.5405 11.7059C21.8818 12.3898 21.2251 13.0717 20.5706 13.7516C21.1231 12.9717 21.7798 12.2898 22.5405 11.7059Z" fill="#777676"/>
<path opacity="0.906" fill-rule="evenodd" clip-rule="evenodd" d="M50.3467 12.3878C50.7051 12.6702 51.0082 12.9985 51.2559 13.3728C50.8976 13.0904 50.5945 12.7621 50.3467 12.3878Z" fill="#797777"/>
<path opacity="0.967" fill-rule="evenodd" clip-rule="evenodd" d="M114.597 12.4636C119.734 12.273 123.307 14.546 125.318 19.2826C125.899 20.9827 126.278 22.7253 126.454 24.5104C126.492 26.4802 126.505 28.4501 126.492 30.4202C120.835 30.4202 115.178 30.4202 109.52 30.4202C109.606 32.5403 110.565 34.144 112.399 35.2314C114.341 36.2522 116.337 36.3532 118.385 35.5344C118.992 35.2309 119.509 34.8142 119.938 34.2843C121.153 35.3981 122.365 36.5093 123.575 37.618C123.626 37.6938 123.626 37.7695 123.575 37.8453C121.835 40.0891 119.55 41.3644 116.718 41.6715C113.495 42.0496 110.591 41.2919 108.005 39.3985C106.345 37.8338 105.196 35.9523 104.558 33.7539C104.328 32.8571 104.139 31.9479 103.989 31.0263C104.773 31.0389 105.555 31.0263 106.338 30.9885C106.553 30.9758 106.666 30.8622 106.679 30.6475C106.73 28.2735 106.73 25.8995 106.679 23.5255C106.666 23.3108 106.553 23.1972 106.338 23.1845C105.631 23.1466 104.924 23.1341 104.217 23.1466C104.627 20.2605 105.801 17.735 107.74 15.57C109.664 13.7173 111.949 12.6819 114.597 12.4636ZM114.9 18.0703C117.098 17.9632 118.727 18.8724 119.787 20.7979C120.397 22.0957 120.763 23.4595 120.885 24.8893C117.097 24.8893 113.309 24.8893 109.52 24.8893C109.598 23.0936 110.167 21.4772 111.225 20.0402C112.189 18.8704 113.414 18.2137 114.9 18.0703Z" fill="#040404"/>
<path opacity="0.671" fill-rule="evenodd" clip-rule="evenodd" d="M15.4185 12.5393C14.7965 12.6041 14.1651 12.6799 13.5244 12.7666C13.7542 12.6516 14.0068 12.5885 14.282 12.5772C14.66 12.5394 15.0388 12.5268 15.4185 12.5393Z" fill="#535252"/>
<path opacity="0.494" fill-rule="evenodd" clip-rule="evenodd" d="M32.3901 12.4636C32.06 12.6581 31.7065 12.8097 31.3293 12.9182C31.6482 12.6937 32.0018 12.5422 32.3901 12.4636Z" fill="#EC8789"/>
<path opacity="0.494" fill-rule="evenodd" clip-rule="evenodd" d="M38.6787 12.1605C39.4482 12.2515 40.1554 12.504 40.8002 12.9182C40.1377 12.6485 39.4558 12.4339 38.7545 12.2742C38.7124 12.2452 38.6871 12.2073 38.6787 12.1605Z" fill="#ED8789"/>
<path fill-rule="evenodd" clip-rule="evenodd" d="M15.4184 12.5394C15.5025 12.5437 15.5782 12.5689 15.6457 12.6151C16.0278 12.7638 16.4318 12.8648 16.858 12.9182C17.1761 12.9724 17.4286 13.1239 17.6157 13.3728C17.0624 15.0581 16.4816 16.7249 15.873 18.3734C15.7998 18.4723 15.6987 18.5229 15.57 18.5249C15.2577 18.429 14.9547 18.3028 14.6608 18.1461C14.5713 18.0274 14.4451 17.9642 14.282 17.9567C13.8274 17.9061 13.3728 17.9061 12.9182 17.9567C12.6632 17.9949 12.4359 18.0833 12.2363 18.2218C12.004 18.4029 11.7514 18.5545 11.4786 18.6764C11.2957 18.7833 11.1694 18.9349 11.0998 19.131C10.8434 19.5242 10.6161 19.9283 10.4179 20.3433C10.2362 20.639 10.1352 20.9673 10.1148 21.3283C10.1148 21.3535 10.1148 21.3788 10.1148 21.404C9.996 21.5791 9.93281 21.7812 9.92539 22.0102C9.91274 28.2357 9.87485 34.4486 9.81174 40.6487C8.06911 40.6487 6.32649 40.6487 4.58386 40.6487C4.58386 31.38 4.58386 22.1112 4.58386 12.8424C6.32649 12.8424 8.06911 12.8424 9.81174 12.8424C9.78651 13.9044 9.81182 14.9651 9.88751 16.0246C9.9788 15.943 10.0293 15.842 10.039 15.7216C10.533 14.3213 11.4927 13.3742 12.9182 12.8803C13.1123 12.7986 13.3143 12.7607 13.5243 12.7667C14.165 12.6799 14.7964 12.6041 15.4184 12.5394Z" fill="#050505"/>
<path opacity="0.635" fill-rule="evenodd" clip-rule="evenodd" d="M15.6457 12.6151C16.076 12.6413 16.48 12.7423 16.858 12.9182C16.4318 12.8648 16.0277 12.7638 15.6457 12.6151Z" fill="#414040"/>
<path opacity="0.506" fill-rule="evenodd" clip-rule="evenodd" d="M10.039 15.7215C10.0293 15.842 9.97876 15.943 9.88747 16.0246C9.81178 14.9651 9.78647 13.9043 9.8117 12.8424C8.06907 12.8424 6.32645 12.8424 4.58382 12.8424C4.58382 22.1111 4.58382 31.3799 4.58382 40.6486C6.32645 40.6486 8.06907 40.6486 9.8117 40.6486C9.8117 40.6739 9.8117 40.6992 9.8117 40.7244C8.04384 40.7244 6.27594 40.7244 4.50806 40.7244C4.50806 31.4052 4.50806 22.0859 4.50806 12.7666C6.32645 12.7666 8.14484 12.7666 9.96323 12.7666C9.97013 13.7802 9.95747 14.7904 9.92535 15.7973C9.95437 15.7552 9.99225 15.7299 10.039 15.7215Z" fill="#595858"/>
<path fill-rule="evenodd" clip-rule="evenodd" d="M31.3294 12.9182C31.0524 13.1195 30.7494 13.271 30.4202 13.3728C30.6083 13.0062 30.9114 12.8547 31.3294 12.9182Z" fill="#F06561"/>
<path opacity="0.706" fill-rule="evenodd" clip-rule="evenodd" d="M40.8001 12.9182C40.9183 12.9196 41.032 12.9449 41.1411 12.994C41.3383 13.1494 41.5529 13.2757 41.7851 13.3728C41.8126 13.4245 41.8378 13.4751 41.8608 13.5243C41.482 13.3604 41.1284 13.1583 40.8001 12.9182Z" fill="#EF878A"/>
<path opacity="0.855" fill-rule="evenodd" clip-rule="evenodd" d="M51.2559 13.3728C51.4388 13.4797 51.5651 13.6312 51.6348 13.8274C51.4519 13.7205 51.3255 13.5689 51.2559 13.3728Z" fill="#757373"/>
<path opacity="0.627" fill-rule="evenodd" clip-rule="evenodd" d="M41.8609 13.5243C41.9766 13.5188 42.0524 13.5693 42.0882 13.6758C41.9725 13.6814 41.8967 13.6308 41.8609 13.5243Z" fill="#ED8C8F"/>
<path fill-rule="evenodd" clip-rule="evenodd" d="M42.3156 13.8274C42.4743 13.8965 42.6258 13.9849 42.7701 14.0926C42.8271 14.1434 42.8524 14.2065 42.8459 14.282C42.6261 14.1841 42.4494 14.0326 42.3156 13.8274Z" fill="#EF8588"/>
<path opacity="0.596" fill-rule="evenodd" clip-rule="evenodd" d="M20.5705 13.7516C20.5009 13.9478 20.3746 14.0993 20.1917 14.2062C20.2613 14.0101 20.3876 13.8585 20.5705 13.7516Z" fill="#848383"/>
<path opacity="0.388" fill-rule="evenodd" clip-rule="evenodd" d="M51.6348 13.8274C51.8177 13.9343 51.944 14.0858 52.0136 14.282C51.8307 14.1751 51.7044 14.0235 51.6348 13.8274Z" fill="#848282"/>
<path opacity="0.992" fill-rule="evenodd" clip-rule="evenodd" d="M29.8898 13.7516C29.6145 14.0156 29.3114 14.2429 28.9807 14.4335C29.0274 14.3025 29.1032 14.1889 29.208 14.0926C29.429 13.9582 29.6563 13.8446 29.8898 13.7516Z" fill="#EE8587"/>
<path opacity="0.796" fill-rule="evenodd" clip-rule="evenodd" d="M52.0135 14.282C52.1471 14.3397 52.2228 14.4408 52.2408 14.585C52.1073 14.5273 52.0316 14.4262 52.0135 14.282Z" fill="#807E7E"/>
<path opacity="0.267" fill-rule="evenodd" clip-rule="evenodd" d="M20.1918 14.2062C20.0769 14.436 19.9254 14.6381 19.7372 14.8123C19.8151 14.5554 19.9667 14.3534 20.1918 14.2062Z" fill="#908E8E"/>
<path opacity="0.749" fill-rule="evenodd" clip-rule="evenodd" d="M52.2409 14.585C52.3744 14.6428 52.4502 14.7438 52.4682 14.8881C52.3347 14.8304 52.2589 14.7293 52.2409 14.585Z" fill="#828080"/>
<path opacity="0.494" fill-rule="evenodd" clip-rule="evenodd" d="M19.7371 14.8123C19.7426 14.928 19.6921 15.0038 19.5856 15.0396C19.58 14.924 19.6306 14.8482 19.7371 14.8123Z" fill="#818080"/>
<path opacity="0.439" fill-rule="evenodd" clip-rule="evenodd" d="M52.4682 14.8881C52.5747 14.9239 52.6252 14.9997 52.6197 15.1154C52.5132 15.0796 52.4627 15.0038 52.4682 14.8881Z" fill="#848282"/>
<path opacity="0.643" fill-rule="evenodd" clip-rule="evenodd" d="M19.5856 15.0396C19.5676 15.1839 19.4918 15.285 19.3583 15.3427C19.3764 15.1984 19.4521 15.0974 19.5856 15.0396Z" fill="#7D7B7B"/>
<path opacity="0.537" fill-rule="evenodd" clip-rule="evenodd" d="M52.6197 15.1154C52.7263 15.1512 52.7768 15.227 52.7713 15.3427C52.6647 15.3068 52.6142 15.2311 52.6197 15.1154Z" fill="#807E7E"/>
<path opacity="0.4" fill-rule="evenodd" clip-rule="evenodd" d="M19.3582 15.3427C19.3638 15.4584 19.3132 15.5342 19.2067 15.57C19.2012 15.4543 19.2517 15.3785 19.3582 15.3427Z" fill="#929191"/>
<path opacity="0.502" fill-rule="evenodd" clip-rule="evenodd" d="M52.7712 15.3427C52.9047 15.4004 52.9805 15.5015 52.9985 15.6458C52.865 15.588 52.7893 15.487 52.7712 15.3427Z" fill="#848383"/>
<path opacity="0.275" fill-rule="evenodd" clip-rule="evenodd" d="M19.2068 15.57C19.2123 15.6857 19.1617 15.7615 19.0552 15.7973C19.0497 15.6816 19.1002 15.6059 19.2068 15.57Z" fill="#979595"/>
<path opacity="0.412" fill-rule="evenodd" clip-rule="evenodd" d="M53.0743 15.7973C53.1808 15.8331 53.2313 15.9089 53.2258 16.0246C53.1193 15.9887 53.0687 15.913 53.0743 15.7973Z" fill="#8B8989"/>
<path opacity="0.62" fill-rule="evenodd" clip-rule="evenodd" d="M28.0714 15.3427C27.837 15.6853 27.5845 16.0137 27.3138 16.3277C27.4592 15.9156 27.7118 15.5873 28.0714 15.3427Z" fill="#F08A8C"/>
<path opacity="0.255" fill-rule="evenodd" clip-rule="evenodd" d="M53.2259 16.0246C53.3324 16.0604 53.3829 16.1362 53.3774 16.2519C53.2709 16.2161 53.2203 16.1403 53.2259 16.0246Z" fill="#9C9A9A"/>
<path opacity="0.314" fill-rule="evenodd" clip-rule="evenodd" d="M18.9795 15.9489C18.8909 16.177 18.7646 16.3791 18.6006 16.555C18.6513 16.3012 18.7776 16.0992 18.9795 15.9489Z" fill="#8E8D8D"/>
<path opacity="0.016" fill-rule="evenodd" clip-rule="evenodd" d="M42.8459 14.282C43.2708 14.6178 43.6875 14.9714 44.096 15.3427C44.3592 15.7793 44.6497 16.1961 44.9673 16.5928C45.0164 16.7019 45.0417 16.8156 45.0431 16.9338C44.6897 16.5035 44.3614 16.0489 44.0581 15.57C43.6524 15.1391 43.2484 14.7097 42.8459 14.282Z" fill="#EE8D8F"/>
<path opacity="0.298" fill-rule="evenodd" clip-rule="evenodd" d="M53.4532 16.4034C53.5597 16.4393 53.6102 16.515 53.6047 16.6307C53.4982 16.5949 53.4476 16.5191 53.4532 16.4034Z" fill="#A19F9F"/>
<path opacity="0.961" fill-rule="evenodd" clip-rule="evenodd" d="M18.6006 16.555C18.5545 16.7751 18.4535 16.952 18.2975 17.0853C18.3414 16.8708 18.4424 16.6941 18.6006 16.555Z" fill="#6D6B6B"/>
<path opacity="0.624" fill-rule="evenodd" clip-rule="evenodd" d="M27.3138 16.3276C27.1664 16.6261 26.9896 16.9039 26.7834 17.1611C26.7849 17.0429 26.8101 16.9292 26.8592 16.8201C27.0076 16.7216 27.0961 16.5828 27.1244 16.4034C27.1752 16.3464 27.2383 16.3211 27.3138 16.3276Z" fill="#EF8A8B"/>
<path opacity="0.212" fill-rule="evenodd" clip-rule="evenodd" d="M53.6804 16.7823C53.8386 16.9214 53.9396 17.0981 53.9835 17.3126C53.8253 17.1735 53.7243 16.9968 53.6804 16.7823Z" fill="#AAA8A8"/>
<path opacity="0.114" fill-rule="evenodd" clip-rule="evenodd" d="M18.2975 17.0853C18.2854 17.2106 18.2349 17.3116 18.146 17.3884C18.1255 17.246 18.176 17.145 18.2975 17.0853Z" fill="#A8A6A6"/>
<path fill-rule="evenodd" clip-rule="evenodd" d="M37.5422 17.6157C36.6121 17.4476 35.6777 17.4223 34.7388 17.5399C34.7705 17.4852 34.821 17.4473 34.8904 17.4263C35.805 17.2353 36.689 17.2985 37.5422 17.6157Z" fill="#EB787A"/>
<path fill-rule="evenodd" clip-rule="evenodd" d="M37.5422 17.6157C37.8131 17.7992 38.1162 17.9255 38.4514 17.9945C38.4661 18.1773 38.5671 18.2531 38.7545 18.2218C39.0841 18.6576 39.463 19.0365 39.891 19.3583C39.9805 19.6251 40.1321 19.8524 40.3456 20.0402C40.3757 20.2618 40.4767 20.4386 40.6486 20.5706C40.6632 20.8435 40.7642 21.0708 40.9517 21.2525C40.9846 21.6382 41.0856 21.9918 41.2548 22.3132C41.2807 22.6733 41.3313 23.0269 41.4063 23.3739C41.4063 23.6518 41.4063 23.9295 41.4063 24.2074C37.6685 24.2074 33.9307 24.2074 30.1929 24.2074C30.2081 23.7521 30.2333 23.2975 30.2686 22.8436C30.4205 22.4866 30.5215 22.1078 30.5717 21.7071C30.6402 21.6534 30.6654 21.5776 30.6475 21.4798C30.7232 21.4798 30.799 21.4798 30.8748 21.4798C30.8978 21.2508 30.9357 21.0235 30.9884 20.7979C31.3468 20.2272 31.713 19.6716 32.087 19.131C32.4788 18.8614 32.8323 18.5583 33.1478 18.2218C33.421 18.0665 33.7115 17.9403 34.0191 17.843C34.0971 17.8175 34.135 17.767 34.1327 17.6915C34.3546 17.6865 34.5566 17.636 34.7389 17.5399C35.6777 17.4223 36.6121 17.4476 37.5422 17.6157Z" fill="#EB1E25"/>
<path opacity="0.753" fill-rule="evenodd" clip-rule="evenodd" d="M26.7834 17.1611C26.6869 17.4081 26.5607 17.6354 26.4046 17.843C26.4327 17.5524 26.559 17.3251 26.7834 17.1611Z" fill="#EF8B8E"/>
<path opacity="0.69" fill-rule="evenodd" clip-rule="evenodd" d="M34.7389 17.5399C34.5567 17.636 34.3546 17.6865 34.1328 17.6915C34.3099 17.5748 34.512 17.5243 34.7389 17.5399Z" fill="#EC898C"/>
<path opacity="0.302" fill-rule="evenodd" clip-rule="evenodd" d="M37.5422 17.6157C37.8833 17.6602 38.1863 17.7865 38.4514 17.9945C38.1162 17.9255 37.8132 17.7992 37.5422 17.6157Z" fill="#EE8F91"/>
<path opacity="0.173" fill-rule="evenodd" clip-rule="evenodd" d="M18.0703 17.5399C18.033 17.7156 17.9572 17.8672 17.843 17.9945C17.84 17.7984 17.9158 17.6468 18.0703 17.5399Z" fill="#A5A3A3"/>
<path opacity="0.212" fill-rule="evenodd" clip-rule="evenodd" d="M14.6607 18.146C13.8466 17.9359 13.0385 17.9612 12.2362 18.2218C12.4359 18.0833 12.6631 17.9949 12.9181 17.9566C13.3727 17.9061 13.8273 17.9061 14.2819 17.9566C14.445 17.9641 14.5712 18.0273 14.6607 18.146Z" fill="#565555"/>
<path opacity="0.722" fill-rule="evenodd" clip-rule="evenodd" d="M34.1327 17.6915C34.135 17.767 34.0971 17.8175 34.0191 17.843C33.7115 17.9403 33.421 18.0665 33.1478 18.2218C33.4208 17.9463 33.749 17.7696 34.1327 17.6915Z" fill="#ED8689"/>
<path opacity="0.839" fill-rule="evenodd" clip-rule="evenodd" d="M38.4514 17.9945C38.5743 18.0416 38.6753 18.1174 38.7545 18.2218C38.5671 18.253 38.4661 18.1773 38.4514 17.9945Z" fill="#EE8A8C"/>
<path opacity="0.702" fill-rule="evenodd" clip-rule="evenodd" d="M45.0431 16.9338C45.1877 16.9628 45.3013 17.0386 45.384 17.1611C45.6105 17.733 45.7999 18.3139 45.9523 18.9037C45.6525 18.253 45.3494 17.5964 45.0431 16.9338Z" fill="#F17F7F"/>
<path opacity="0.208" fill-rule="evenodd" clip-rule="evenodd" d="M17.6914 18.2976C17.6989 18.4531 17.6483 18.5794 17.5399 18.6764C17.5325 18.5209 17.583 18.3946 17.6914 18.2976Z" fill="#9A9898"/>
<path opacity="0.6" fill-rule="evenodd" clip-rule="evenodd" d="M54.1351 17.6157C54.3447 17.9092 54.4962 18.2375 54.5897 18.6007C54.4699 18.4359 54.3562 18.2592 54.2487 18.0703C54.1871 17.9236 54.1492 17.7721 54.1351 17.6157Z" fill="#8C8B8B"/>
<path opacity="0.01" fill-rule="evenodd" clip-rule="evenodd" d="M15.8731 18.3734C15.8731 18.4743 15.8731 18.5754 15.8731 18.6764C15.7306 18.697 15.6296 18.6464 15.57 18.5249C15.6987 18.5228 15.7998 18.4723 15.8731 18.3734Z" fill="#706F6F"/>
<path fill-rule="evenodd" clip-rule="evenodd" d="M38.7545 18.2218C39.2091 18.5249 39.5879 18.9037 39.891 19.3583C39.4629 19.0365 39.0841 18.6576 38.7545 18.2218Z" fill="#F08184"/>
<path opacity="0.769" fill-rule="evenodd" clip-rule="evenodd" d="M26.2531 18.0703C26.0592 18.6734 25.8319 19.2543 25.5712 19.8129C25.5915 19.5674 25.6419 19.3275 25.7227 19.0931C25.858 18.8555 25.959 18.603 26.0258 18.3355C26.0918 18.2321 26.1675 18.1438 26.2531 18.0703Z" fill="#EF8486"/>
<path fill-rule="evenodd" clip-rule="evenodd" d="M33.1478 18.2218C32.8323 18.5583 32.4788 18.8614 32.087 19.131C32.3733 18.7433 32.7269 18.4403 33.1478 18.2218Z" fill="#F16D6D"/>
<path opacity="0.016" fill-rule="evenodd" clip-rule="evenodd" d="M11.4786 18.6764C11.4089 18.8726 11.2826 19.0241 11.0997 19.131C11.1694 18.9349 11.2957 18.7833 11.4786 18.6764Z" fill="#555454"/>
<path opacity="0.251" fill-rule="evenodd" clip-rule="evenodd" d="M17.4642 18.8279C17.4716 18.9835 17.4211 19.1098 17.3127 19.2068C17.3052 19.0512 17.3558 18.9249 17.4642 18.8279Z" fill="#A5A3A3"/>
<path opacity="0.965" fill-rule="evenodd" clip-rule="evenodd" d="M54.7412 18.9795C54.915 19.197 55.0161 19.4495 55.0443 19.7372C54.8613 19.522 54.7603 19.2695 54.7412 18.9795Z" fill="#807E7E"/>
<path opacity="0.453" fill-rule="evenodd" clip-rule="evenodd" d="M45.9523 18.9037C46.1184 19.0569 46.1942 19.259 46.1796 19.5098C46.0757 19.3253 45.9999 19.1232 45.9523 18.9037Z" fill="#EE898B"/>
<path opacity="0.729" fill-rule="evenodd" clip-rule="evenodd" d="M32.0871 19.131C31.713 19.6716 31.3469 20.2272 30.9885 20.7979C30.9358 21.0235 30.8979 21.2508 30.8748 21.4798C30.7991 21.4798 30.7233 21.4798 30.6475 21.4798C30.6655 21.5776 30.6403 21.6533 30.5718 21.7071C30.845 20.7052 31.35 19.8465 32.0871 19.131Z" fill="#F07F7F"/>
<path opacity="0.486" fill-rule="evenodd" clip-rule="evenodd" d="M39.8909 19.3583C40.0992 19.5475 40.2507 19.7748 40.3455 20.0402C40.132 19.8524 39.9805 19.6251 39.8909 19.3583Z" fill="#EE8B8C"/>
<path opacity="0.969" fill-rule="evenodd" clip-rule="evenodd" d="M17.3126 19.2068C17.3244 19.4504 17.2486 19.6525 17.0853 19.8129C17.1217 19.5899 17.1975 19.3879 17.3126 19.2068Z" fill="#636262"/>
<path opacity="0.808" fill-rule="evenodd" clip-rule="evenodd" d="M46.1796 19.5099C46.2618 19.5189 46.3124 19.5695 46.3311 19.6614C46.4111 19.9602 46.4616 20.2633 46.4826 20.5706C46.3594 20.2299 46.2584 19.8763 46.1796 19.5099Z" fill="#EF8080"/>
<path opacity="0.749" fill-rule="evenodd" clip-rule="evenodd" d="M55.0443 19.7372C55.2537 20.108 55.38 20.5122 55.4231 20.9494C55.238 20.5706 55.1117 20.1665 55.0443 19.7372Z" fill="#8A8888"/>
<path fill-rule="evenodd" clip-rule="evenodd" d="M17.0853 19.8129C17.0677 20.1495 16.9667 20.4525 16.7822 20.7221C16.8395 20.3988 16.9405 20.0958 17.0853 19.8129Z" fill="#6F6D6D"/>
<path opacity="0.012" fill-rule="evenodd" clip-rule="evenodd" d="M40.3456 20.0402C40.4933 20.1864 40.5943 20.3632 40.6486 20.5706C40.4767 20.4386 40.3757 20.2617 40.3456 20.0402Z" fill="#ED9D9F"/>
<path opacity="0.388" fill-rule="evenodd" clip-rule="evenodd" d="M10.4179 20.3433C10.3507 20.6897 10.2497 21.018 10.1149 21.3282C10.1352 20.9673 10.2362 20.639 10.4179 20.3433Z" fill="#585757"/>
<path opacity="0.133" fill-rule="evenodd" clip-rule="evenodd" d="M25.5712 19.8129C25.5005 20.2027 25.3742 20.5563 25.1923 20.8737C25.2676 20.5736 25.3434 20.2706 25.4196 19.9645C25.4383 19.8726 25.4889 19.822 25.5712 19.8129Z" fill="#EF9496"/>
<path opacity="0.612" fill-rule="evenodd" clip-rule="evenodd" d="M16.7823 20.7221C16.7891 20.923 16.7386 21.0998 16.6307 21.2525C16.6239 21.0515 16.6744 20.8748 16.7823 20.7221Z" fill="#8B8A8A"/>
<path opacity="0.71" fill-rule="evenodd" clip-rule="evenodd" d="M40.6486 20.5706C40.7786 20.783 40.8796 21.0103 40.9517 21.2525C40.7642 21.0708 40.6632 20.8435 40.6486 20.5706Z" fill="#EC8E8F"/>
<path opacity="0.035" fill-rule="evenodd" clip-rule="evenodd" d="M55.4231 20.9494C55.5423 21.0708 55.5929 21.2223 55.5746 21.404C55.4553 21.2826 55.4048 21.1311 55.4231 20.9494Z" fill="#979595"/>
<path opacity="0.775" fill-rule="evenodd" clip-rule="evenodd" d="M46.4826 20.5706C46.5922 20.6186 46.6427 20.707 46.6341 20.8358C46.7166 21.2491 46.7672 21.6658 46.7857 22.0859C46.6779 21.5849 46.5769 21.0799 46.4826 20.5706Z" fill="#F18486"/>
<path opacity="0.373" fill-rule="evenodd" clip-rule="evenodd" d="M25.1923 20.8737C25.2058 21.1481 25.1553 21.4007 25.0408 21.6313C25.0445 21.3602 25.0949 21.1077 25.1923 20.8737Z" fill="#ED888A"/>
<path opacity="0.722" fill-rule="evenodd" clip-rule="evenodd" d="M40.9517 21.2525C41.1376 21.5759 41.2386 21.9295 41.2548 22.3132C41.0856 21.9918 40.9846 21.6382 40.9517 21.2525Z" fill="#EE9193"/>
<path opacity="0.714" fill-rule="evenodd" clip-rule="evenodd" d="M25.0407 21.6313C24.946 22.1952 24.845 22.7508 24.7377 23.2982C24.7617 22.7637 24.8248 22.2334 24.9271 21.7071C24.9561 21.665 24.994 21.6397 25.0407 21.6313Z" fill="#F08384"/>
<path opacity="0.165" fill-rule="evenodd" clip-rule="evenodd" d="M30.5717 21.7071C30.5215 22.1078 30.4205 22.4866 30.2686 22.8436C30.3 22.4391 30.401 22.0602 30.5717 21.7071Z" fill="#EF8D8F"/>
<path opacity="0.186" fill-rule="evenodd" clip-rule="evenodd" d="M55.7262 22.0859C55.8683 22.4425 55.944 22.8213 55.9535 23.2224C55.8219 22.864 55.7461 22.4852 55.7262 22.0859Z" fill="#8F8E8E"/>
<path opacity="0.204" fill-rule="evenodd" clip-rule="evenodd" d="M16.6307 21.2525C16.4194 22.2446 16.2173 23.2295 16.0245 24.2074C16.0928 23.1841 16.2948 22.1991 16.6307 21.2525Z" fill="#908E8E"/>
<path fill-rule="evenodd" clip-rule="evenodd" d="M17.4641 22.1617C17.4094 22.5663 17.3462 22.9703 17.2747 23.3739C17.2537 23.4433 17.2158 23.4938 17.1611 23.5255C17.2159 23.1209 17.279 22.7168 17.3505 22.3132C17.3716 22.2438 17.4094 22.1934 17.4641 22.1617Z" fill="#740F13"/>
<path opacity="0.365" fill-rule="evenodd" clip-rule="evenodd" d="M41.2548 22.3132C41.3015 22.3216 41.3394 22.3468 41.3684 22.389C41.4241 22.7157 41.462 23.0441 41.4821 23.3739C41.4568 23.3739 41.4315 23.3739 41.4063 23.3739C41.3313 23.0268 41.2807 22.6733 41.2548 22.3132Z" fill="#ED8688"/>
<path opacity="0.027" fill-rule="evenodd" clip-rule="evenodd" d="M55.9534 23.2224C56.0219 23.2761 56.0472 23.3519 56.0292 23.4497C56.6241 23.4251 57.2049 23.4503 57.7718 23.5255C57.1657 23.5255 56.5596 23.5255 55.9534 23.5255C55.9534 23.4245 55.9534 23.3234 55.9534 23.2224Z" fill="#B1AEAE"/>
<path opacity="0.012" fill-rule="evenodd" clip-rule="evenodd" d="M10.1148 21.404C10.0852 21.657 10.0473 21.9096 10.0011 22.1617C10.0136 28.375 9.95043 34.5626 9.81171 40.7244C9.81171 40.6992 9.81171 40.6739 9.81171 40.6487C9.87482 34.4485 9.9127 28.2357 9.92536 22.0101C9.93278 21.7812 9.99597 21.5791 10.1148 21.404Z" fill="#797777"/>
<path opacity="0.078" fill-rule="evenodd" clip-rule="evenodd" d="M24.7377 23.3739C24.7502 23.6277 24.7376 23.8803 24.6998 24.1316C24.6823 24.2253 24.6444 24.3011 24.5862 24.3589C24.6066 24.0158 24.6572 23.6875 24.7377 23.3739Z" fill="#EAA1A4"/>
<path fill-rule="evenodd" clip-rule="evenodd" d="M54.8927 23.2224C55.0264 23.4211 55.077 23.6484 55.0442 23.9043C72.0159 23.9043 88.9876 23.9043 105.959 23.9043C105.984 26.0388 105.959 28.1603 105.883 30.2687C105.883 30.2435 105.883 30.2181 105.883 30.1929C105.883 28.122 105.883 26.051 105.883 23.9801C88.9118 23.9801 71.9401 23.9801 54.9685 23.9801C54.9597 23.7255 54.9344 23.473 54.8927 23.2224Z" fill="#7A1115"/>
<path fill-rule="evenodd" clip-rule="evenodd" d="M54.9685 23.9801C71.9401 23.9801 88.9118 23.9801 105.883 23.9801C105.883 26.051 105.883 28.122 105.883 30.1929C88.8868 30.2056 71.8896 30.1929 54.8927 30.155C71.8644 30.1171 88.836 30.1045 105.808 30.1171C105.808 28.122 105.808 26.1268 105.808 24.1316C88.8489 24.136 71.9022 24.0855 54.9685 23.9801Z" fill="#F61F26"/>
<path opacity="0.933" fill-rule="evenodd" clip-rule="evenodd" d="M30.2686 22.8436C30.2333 23.2975 30.2081 23.7521 30.1929 24.2074C33.9431 24.2831 37.7062 24.3083 41.4821 24.2831C41.4821 23.9801 41.4821 23.677 41.4821 23.3739C41.5823 23.7073 41.5823 24.0483 41.4821 24.3968C37.6937 24.4473 33.9054 24.4473 30.1171 24.3968C30.0502 23.9336 30.0628 23.4665 30.155 22.9951C30.1761 22.9257 30.2139 22.8753 30.2686 22.8436Z" fill="#F3898C"/>
<path fill-rule="evenodd" clip-rule="evenodd" d="M41.4063 23.3739C41.4315 23.3739 41.4568 23.3739 41.4821 23.3739C41.4821 23.677 41.4821 23.9801 41.4821 24.2831C37.7062 24.3083 33.9431 24.2831 30.1929 24.2074C33.9307 24.2074 37.6685 24.2074 41.4063 24.2074C41.4063 23.9295 41.4063 23.6518 41.4063 23.3739Z" fill="#ED343A"/>
<path fill-rule="evenodd" clip-rule="evenodd" d="M17.161 23.7528C17.1839 24.0778 17.1335 24.3809 17.0095 24.662C16.9866 24.3369 17.0371 24.0339 17.161 23.7528Z" fill="#5E0D10"/>
<path opacity="0.4" fill-rule="evenodd" clip-rule="evenodd" d="M46.7857 22.1617C46.9566 22.7442 47.045 23.3503 47.0509 23.9801C47.1138 25.9123 47.1011 27.8318 47.013 29.7383C47.0257 27.8945 47.013 26.0508 46.9751 24.2074C46.947 23.5197 46.8839 22.8378 46.7857 22.1617Z" fill="#ED9092"/>
<path opacity="0.439" fill-rule="evenodd" clip-rule="evenodd" d="M16.0246 24.2831C15.9939 25.0278 15.9687 25.7728 15.9488 26.5182C15.9842 28.7235 16.3125 30.8828 16.9337 32.9963C16.7749 32.6345 16.6361 32.2557 16.517 31.8598C15.8692 29.3542 15.705 26.8287 16.0246 24.2831Z" fill="#8A8989"/>
<path opacity="0.706" fill-rule="evenodd" clip-rule="evenodd" d="M24.5861 28.1472C24.5964 29.1628 24.6722 30.1731 24.8134 31.1779C24.6901 30.6985 24.6017 30.1934 24.5482 29.6625C24.486 29.1438 24.4987 28.6387 24.5861 28.1472Z" fill="#EF8384"/>
<path fill-rule="evenodd" clip-rule="evenodd" d="M47.013 29.7383C41.4321 29.8896 35.8254 29.9401 30.1929 29.8898C30.1929 30.1424 30.1929 30.395 30.1929 30.6475C30.1677 30.6475 30.1423 30.6475 30.1171 30.6475C30.017 30.3647 30.017 30.0742 30.1171 29.7762C35.7491 29.7383 41.381 29.7256 47.013 29.7383Z" fill="#EE6362"/>
<path fill-rule="evenodd" clip-rule="evenodd" d="M30.1171 30.6475C30.1423 30.6475 30.1676 30.6475 30.1929 30.6475C30.2377 30.8465 30.2629 31.0486 30.2686 31.2536C30.1381 31.0809 30.0876 30.8788 30.1171 30.6475Z" fill="#EB8B8E"/>
<path opacity="0.498" fill-rule="evenodd" clip-rule="evenodd" d="M55.9535 30.7233C55.8374 30.9707 55.7364 31.2232 55.6504 31.481C55.6636 31.2253 55.7015 30.9728 55.764 30.7233C55.8381 30.6268 55.9013 30.6268 55.9535 30.7233Z" fill="#878585"/>
<path opacity="0.894" fill-rule="evenodd" clip-rule="evenodd" d="M72.4705 31.3294C74.3143 31.3167 76.158 31.3294 78.0014 31.3673C78.0393 31.4052 78.0772 31.443 78.1151 31.4809C78.1779 34.5548 78.1651 37.6234 78.0772 40.6865C76.2088 40.7244 74.3395 40.7371 72.4705 40.7244C72.4705 37.5928 72.4705 34.461 72.4705 31.3294Z" fill="#0A0100"/>
<path opacity="0.914" fill-rule="evenodd" clip-rule="evenodd" d="M97.7007 31.3294C99.5623 31.3045 101.419 31.3299 103.27 31.4052C103.307 34.5115 103.32 37.6179 103.307 40.7244C101.438 40.7244 99.5698 40.7244 97.7007 40.7244C97.7007 37.5928 97.7007 34.461 97.7007 31.3294Z" fill="black"/>
<path opacity="0.957" fill-rule="evenodd" clip-rule="evenodd" d="M56.2565 31.4051C58.1508 31.3925 60.045 31.4051 61.939 31.443C63.1486 34.5575 65.3963 35.795 68.6822 35.1556C69.7469 34.8567 70.6687 34.3138 71.4477 33.5266C71.6528 33.2332 71.8422 32.9301 72.0159 32.6174C72.1043 34.5616 72.1169 36.5063 72.0538 38.4514C69.8425 40.9305 67.1276 41.7008 63.9089 40.7623C60.772 39.6208 58.5369 37.512 57.2036 34.4358C56.7576 33.4639 56.4419 32.4537 56.2565 31.4051Z" fill="#030403"/>
<path opacity="0.956" fill-rule="evenodd" clip-rule="evenodd" d="M81.4867 31.4052C83.3816 31.38 85.2758 31.4052 87.1692 31.4809C88.2845 34.4252 90.4059 35.6753 93.5335 35.2314C94.5776 34.9996 95.5126 34.545 96.3369 33.8676C96.7059 33.4952 97.0089 33.0785 97.2461 32.6174C97.3347 34.5616 97.3469 36.5063 97.284 38.4515C94.5655 41.3336 91.3954 41.9271 87.7753 40.232C85.1076 38.7997 83.2392 36.6656 82.1686 33.8297C81.8708 33.0422 81.6435 32.2341 81.4867 31.4052Z" fill="#030403"/>
<path fill-rule="evenodd" clip-rule="evenodd" d="M17.5399 31.481C17.6478 31.6336 17.6983 31.8104 17.6914 32.0113C17.5836 31.8587 17.5331 31.6819 17.5399 31.481Z" fill="#580B10"/>
<path fill-rule="evenodd" clip-rule="evenodd" d="M54.6654 31.2536C54.627 31.5251 54.5512 31.7777 54.4381 32.0113C54.4611 31.7823 54.499 31.555 54.5518 31.3294C54.5808 31.2873 54.6187 31.262 54.6654 31.2536Z" fill="#911217"/>
<path opacity="0.169" fill-rule="evenodd" clip-rule="evenodd" d="M55.6503 31.481C55.6555 31.7893 55.5797 32.0672 55.423 32.3144C55.452 32.0154 55.5277 31.7377 55.6503 31.481Z" fill="#9D9B9B"/>
<path fill-rule="evenodd" clip-rule="evenodd" d="M72.9252 31.784C74.5163 31.784 76.1074 31.784 77.6985 31.784C77.6985 34.6126 77.6985 37.4412 77.6985 40.2698C76.1074 40.2698 74.5163 40.2698 72.9252 40.2698C72.9252 37.4412 72.9252 34.6126 72.9252 31.784Z" fill="#EA1D24"/>
<path fill-rule="evenodd" clip-rule="evenodd" d="M102.853 40.2698C102.853 40.2446 102.853 40.2193 102.853 40.194C102.853 37.4159 102.853 34.6379 102.853 31.8597C101.287 31.8597 99.7214 31.8597 98.1553 31.8597C98.1553 34.6379 98.1553 37.4159 98.1553 40.194C98.1553 40.2193 98.1553 40.2446 98.1553 40.2698C98.0796 37.4541 98.0546 34.6255 98.0796 31.784C99.6957 31.784 101.313 31.784 102.929 31.784C102.954 34.6255 102.929 37.4541 102.853 40.2698Z" fill="#750F13"/>
<path fill-rule="evenodd" clip-rule="evenodd" d="M102.853 40.1941C102.853 40.2193 102.853 40.2446 102.853 40.2698C101.287 40.2698 99.7214 40.2698 98.1553 40.2698C98.1553 40.2446 98.1553 40.2193 98.1553 40.1941C98.231 37.4541 98.256 34.7013 98.231 31.9355C99.7464 31.9355 101.262 31.9355 102.777 31.9355C102.752 34.7013 102.777 37.4541 102.853 40.1941Z" fill="#EA1D24"/>
<path fill-rule="evenodd" clip-rule="evenodd" d="M102.853 40.194C102.777 37.4541 102.752 34.7013 102.777 31.9355C101.262 31.9355 99.7464 31.9355 98.231 31.9355C98.256 34.7013 98.231 37.4541 98.1553 40.194C98.1553 37.4159 98.1553 34.6379 98.1553 31.8597C99.7214 31.8597 101.287 31.8597 102.853 31.8597C102.853 34.6379 102.853 37.4159 102.853 40.194Z" fill="#FB2027"/>
<path opacity="0.102" fill-rule="evenodd" clip-rule="evenodd" d="M24.8135 31.1779C24.9939 31.6518 25.095 32.1569 25.1165 32.6932C25.0364 32.3923 24.948 32.0893 24.8513 31.784C24.8137 31.5835 24.801 31.3815 24.8135 31.1779Z" fill="#EE9698"/>
<path fill-rule="evenodd" clip-rule="evenodd" d="M17.6915 32.0113C17.7382 32.0197 17.7761 32.0449 17.8051 32.0871C17.8686 32.341 17.9317 32.5936 17.9945 32.8447C17.9478 32.8363 17.9099 32.8111 17.8809 32.769C17.8174 32.515 17.7543 32.2625 17.6915 32.0113Z" fill="#8D1216"/>
<path fill-rule="evenodd" clip-rule="evenodd" d="M54.3624 32.3144C54.3427 32.5244 54.267 32.7012 54.1351 32.8447C54.1547 32.6347 54.2305 32.458 54.3624 32.3144Z" fill="#8E1216"/>
<path opacity="0.671" fill-rule="evenodd" clip-rule="evenodd" d="M30.3444 31.5567C30.5396 31.8977 30.729 32.2513 30.9127 32.6174C31.2724 33.1144 31.6639 33.569 32.087 33.9812C31.2476 33.3648 30.6668 32.5567 30.3444 31.5567Z" fill="#F0898B"/>
<path opacity="0.345" fill-rule="evenodd" clip-rule="evenodd" d="M55.3473 32.6174C55.2571 33.0741 55.1055 33.5035 54.8927 33.9054C54.9863 33.4476 55.1378 33.0182 55.3473 32.6174Z" fill="#9A9999"/>
<path opacity="0.51" fill-rule="evenodd" clip-rule="evenodd" d="M16.9338 32.9962C17.0531 33.1176 17.1036 33.2692 17.0854 33.4508C16.9916 33.321 16.941 33.1694 16.9338 32.9962Z" fill="#7F7D7D"/>
<path fill-rule="evenodd" clip-rule="evenodd" d="M25.1165 32.6932C25.2602 32.9174 25.3359 33.17 25.3438 33.4508C25.2568 33.4288 25.2062 33.3657 25.1923 33.2614C25.1424 33.0749 25.117 32.8855 25.1165 32.6932Z" fill="#F26C6D"/>
<path opacity="0.424" fill-rule="evenodd" clip-rule="evenodd" d="M25.3438 33.4509C25.4648 33.6288 25.5406 33.8308 25.5711 34.057C25.405 33.9038 25.3292 33.7017 25.3438 33.4509Z" fill="#EF888A"/>
<path opacity="0.529" fill-rule="evenodd" clip-rule="evenodd" d="M17.0853 33.4509C17.3306 33.933 17.5326 34.4381 17.6915 34.9662C17.4166 34.4961 17.2145 33.991 17.0853 33.4509Z" fill="#848282"/>
<path opacity="0.973" fill-rule="evenodd" clip-rule="evenodd" d="M40.8001 33.9055C41.0509 34.0302 41.253 34.207 41.4062 34.4358C41.1589 34.315 40.9569 34.1383 40.8001 33.9055Z" fill="#EF8385"/>
<path fill-rule="evenodd" clip-rule="evenodd" d="M32.087 33.9812C32.3394 34.0063 32.5162 34.1325 32.6174 34.36C32.4 34.2894 32.2231 34.1631 32.087 33.9812Z" fill="#F07274"/>
<path opacity="0.784" fill-rule="evenodd" clip-rule="evenodd" d="M40.8002 33.9055C40.7066 33.8887 40.6309 33.8382 40.5729 33.7539C40.2226 34.2557 39.768 34.6092 39.2091 34.8147C39.6437 34.4943 40.0478 34.1281 40.4214 33.716C40.6093 33.6585 40.7356 33.7216 40.8002 33.9055Z" fill="#EE888A"/>
<path opacity="0.173" fill-rule="evenodd" clip-rule="evenodd" d="M25.5712 34.057C25.6649 34.2198 25.7406 34.3966 25.7985 34.5873C25.6227 34.4669 25.5469 34.2901 25.5712 34.057Z" fill="#EE9395"/>
<path opacity="0.4" fill-rule="evenodd" clip-rule="evenodd" d="M54.8927 33.9812C54.8806 34.1065 54.8301 34.2075 54.7411 34.2843C54.7206 34.1418 54.7711 34.0408 54.8927 33.9812Z" fill="#999797"/>
<path fill-rule="evenodd" clip-rule="evenodd" d="M32.6932 34.4358C32.9847 34.4641 33.212 34.5904 33.3751 34.8146C33.1266 34.7156 32.8993 34.5894 32.6932 34.4358Z" fill="#EF7B7E"/>
<path fill-rule="evenodd" clip-rule="evenodd" d="M41.4062 34.4358C41.8019 34.7046 42.1554 35.033 42.467 35.4208C42.0654 35.1455 41.7118 34.8172 41.4062 34.4358Z" fill="#EE7F80"/>
<path opacity="0.498" fill-rule="evenodd" clip-rule="evenodd" d="M33.3751 34.8146C33.5254 34.7886 33.6264 34.8392 33.6782 34.9662C33.5357 34.9867 33.4348 34.9361 33.3751 34.8146Z" fill="#EF8B8D"/>
<path opacity="0.078" fill-rule="evenodd" clip-rule="evenodd" d="M39.209 34.8147C39.1732 34.9212 39.0974 34.9717 38.9818 34.9662C39.0061 34.8489 39.0818 34.7984 39.209 34.8147Z" fill="#F29194"/>
<path opacity="0.765" fill-rule="evenodd" clip-rule="evenodd" d="M25.7985 34.6631C25.9284 34.8755 26.0294 35.1028 26.1015 35.345C25.9154 35.1694 25.8144 34.9421 25.7985 34.6631Z" fill="#EE8F91"/>
<path opacity="0.161" fill-rule="evenodd" clip-rule="evenodd" d="M54.7412 34.2843C54.6116 34.7754 54.4095 35.23 54.1351 35.6481C54.2941 35.1696 54.4962 34.715 54.7412 34.2843Z" fill="#939191"/>
<path opacity="0.992" fill-rule="evenodd" clip-rule="evenodd" d="M33.9055 35.042C34.4615 35.1223 34.9919 35.2486 35.4965 35.4208C34.9232 35.4225 34.3928 35.2962 33.9055 35.042Z" fill="#F07A7C"/>
<path opacity="0.396" fill-rule="evenodd" clip-rule="evenodd" d="M38.9818 34.9662C38.4045 35.2893 37.7731 35.4408 37.0876 35.4208C37.6974 35.2396 38.3289 35.0881 38.9818 34.9662Z" fill="#EF7D7E"/>
<path opacity="0.129" fill-rule="evenodd" clip-rule="evenodd" d="M17.6915 34.9662C17.8857 35.2443 18.0372 35.5473 18.1461 35.8754C17.9235 35.6142 17.7719 35.3112 17.6915 34.9662Z" fill="#8F8D8D"/>
<path opacity="0.098" fill-rule="evenodd" clip-rule="evenodd" d="M35.4966 35.4208C36.0269 35.4208 36.5573 35.4208 37.0877 35.4208C36.817 35.5271 36.5266 35.5776 36.2164 35.5723C35.9529 35.5854 35.713 35.5349 35.4966 35.4208Z" fill="#E77F83"/>
<path opacity="0.553" fill-rule="evenodd" clip-rule="evenodd" d="M26.1015 35.345C26.2426 35.5262 26.3437 35.7283 26.4046 35.9512C26.2048 35.801 26.1038 35.599 26.1015 35.345Z" fill="#EF8988"/>
<path opacity="0.965" fill-rule="evenodd" clip-rule="evenodd" d="M42.6186 35.5723C42.9889 35.8158 43.3172 36.1189 43.6036 36.4815C43.2293 36.2337 42.901 35.9307 42.6186 35.5723Z" fill="#EF888A"/>
<path opacity="0.153" fill-rule="evenodd" clip-rule="evenodd" d="M18.146 35.8754C18.2349 35.9522 18.2854 36.0532 18.2975 36.1784C18.176 36.1188 18.1255 36.0178 18.146 35.8754Z" fill="#A09E9E"/>
<path opacity="0.71" fill-rule="evenodd" clip-rule="evenodd" d="M26.4046 35.9511C26.5261 36.0108 26.5767 36.1118 26.5561 36.2542C26.4672 36.1774 26.4167 36.0764 26.4046 35.9511Z" fill="#EE9193"/>
<path opacity="0.259" fill-rule="evenodd" clip-rule="evenodd" d="M54.0593 35.7996C53.9903 36.0642 53.8641 36.2915 53.6804 36.4815C53.7494 36.2169 53.8756 35.9896 54.0593 35.7996Z" fill="#9F9D9D"/>
<path opacity="0.424" fill-rule="evenodd" clip-rule="evenodd" d="M18.2975 36.1785C18.4557 36.3176 18.5567 36.4943 18.6006 36.7088C18.4424 36.5697 18.3414 36.3929 18.2975 36.1785Z" fill="#8E8C8C"/>
<path opacity="0.094" fill-rule="evenodd" clip-rule="evenodd" d="M26.5562 36.2542C26.7301 36.3476 26.8312 36.4992 26.8592 36.7088C26.6978 36.5979 26.5968 36.4464 26.5562 36.2542Z" fill="#EF898B"/>
<path fill-rule="evenodd" clip-rule="evenodd" d="M43.8308 36.7088C43.9774 36.758 44.129 36.7833 44.2854 36.7846C44.2977 36.9381 44.285 37.0897 44.2475 37.2392C44.1857 37.3394 44.0973 37.3899 43.9823 37.3907C44.0471 37.3126 44.0977 37.2242 44.1339 37.1255C44.0467 36.9754 43.9457 36.8365 43.8308 36.7088Z" fill="#F05C5A"/>
<path opacity="0.165" fill-rule="evenodd" clip-rule="evenodd" d="M53.6047 36.633C53.6102 36.7487 53.5597 36.8245 53.4532 36.8603C53.4476 36.7446 53.4982 36.6689 53.6047 36.633Z" fill="#999797"/>
<path opacity="0.365" fill-rule="evenodd" clip-rule="evenodd" d="M18.6006 36.7088C18.7588 36.8479 18.8598 37.0247 18.9037 37.2392C18.7455 37.1001 18.6445 36.9233 18.6006 36.7088Z" fill="#929090"/>
<path opacity="0.094" fill-rule="evenodd" clip-rule="evenodd" d="M26.8591 36.7088C27.0331 36.8022 27.1342 36.9538 27.1622 37.1634C27.0246 37.0408 26.9236 36.8893 26.8591 36.7088Z" fill="#EE9496"/>
<path opacity="0.176" fill-rule="evenodd" clip-rule="evenodd" d="M53.3774 37.0119C53.3829 37.1276 53.3324 37.2033 53.2259 37.2392C53.2203 37.1235 53.2709 37.0477 53.3774 37.0119Z" fill="#949393"/>
<path opacity="0.22" fill-rule="evenodd" clip-rule="evenodd" d="M18.9037 37.2392C19.0103 37.275 19.0608 37.3508 19.0553 37.4665C18.9487 37.4306 18.8982 37.3549 18.9037 37.2392Z" fill="#A09E9E"/>
<path opacity="0.788" fill-rule="evenodd" clip-rule="evenodd" d="M27.1623 37.1634C27.3411 37.2668 27.4674 37.4183 27.5411 37.618C27.3141 37.5442 27.1878 37.3927 27.1623 37.1634Z" fill="#EF8283"/>
<path opacity="0.306" fill-rule="evenodd" clip-rule="evenodd" d="M53.2258 37.2392C53.2069 37.4039 53.1311 37.5302 52.9985 37.618C53.0175 37.4533 53.0932 37.327 53.2258 37.2392Z" fill="#908E8E"/>
<path opacity="0.165" fill-rule="evenodd" clip-rule="evenodd" d="M19.0552 37.4665C19.1617 37.5023 19.2123 37.5781 19.2068 37.6938C19.1002 37.6579 19.0497 37.5822 19.0552 37.4665Z" fill="#959393"/>
<path opacity="0.976" fill-rule="evenodd" clip-rule="evenodd" d="M43.9823 37.3907C43.8919 37.6834 43.7151 37.9107 43.452 38.0726C43.6003 37.8232 43.7771 37.5959 43.9823 37.3907Z" fill="#EF8688"/>
<path opacity="0.192" fill-rule="evenodd" clip-rule="evenodd" d="M52.9986 37.618C53.0041 37.7337 52.9536 37.8095 52.847 37.8453C52.8415 37.7296 52.892 37.6538 52.9986 37.618Z" fill="#A3A2A2"/>
<path opacity="0.231" fill-rule="evenodd" clip-rule="evenodd" d="M19.2068 37.6938C19.3451 37.8186 19.4462 37.9701 19.5099 38.1484C19.3339 38.0497 19.2329 37.8982 19.2068 37.6938Z" fill="#949292"/>
<path opacity="0.133" fill-rule="evenodd" clip-rule="evenodd" d="M52.847 37.8453C52.843 38.0068 52.7672 38.1078 52.6198 38.1484C52.6596 38.0173 52.7354 37.9162 52.847 37.8453Z" fill="#AAA9A9"/>
<path opacity="0.024" fill-rule="evenodd" clip-rule="evenodd" d="M19.5099 38.1484C19.6164 38.1842 19.6669 38.26 19.6614 38.3757C19.5549 38.3398 19.5043 38.2641 19.5099 38.1484Z" fill="#A5A4A4"/>
<path opacity="0.078" fill-rule="evenodd" clip-rule="evenodd" d="M52.6197 38.1484C52.6008 38.3131 52.525 38.4394 52.3924 38.5272C52.4113 38.3625 52.4871 38.2362 52.6197 38.1484Z" fill="#949393"/>
<path opacity="0.953" fill-rule="evenodd" clip-rule="evenodd" d="M27.5411 37.618C27.8866 37.9317 28.215 38.26 28.526 38.603C28.4183 38.5871 28.3173 38.5493 28.223 38.4893C28.0409 38.2861 27.8515 38.0967 27.6547 37.9211C27.5948 37.8267 27.5569 37.7258 27.5411 37.618Z" fill="#F27A7D"/>
<path opacity="0.031" fill-rule="evenodd" clip-rule="evenodd" d="M19.6614 38.3757C19.7949 38.4334 19.8706 38.5345 19.8887 38.6788C19.7552 38.621 19.6794 38.5199 19.6614 38.3757Z" fill="#949292"/>
<path opacity="0.059" fill-rule="evenodd" clip-rule="evenodd" d="M52.2409 38.6787C52.2465 38.7944 52.1959 38.8702 52.0894 38.906C52.0839 38.7903 52.1344 38.7145 52.2409 38.6787Z" fill="#959494"/>
<path opacity="0.063" fill-rule="evenodd" clip-rule="evenodd" d="M19.8887 38.6787C19.9952 38.7145 20.0457 38.7903 20.0402 38.906C19.9337 38.8702 19.8831 38.7944 19.8887 38.6787Z" fill="#A5A3A3"/>
<path opacity="0.18" fill-rule="evenodd" clip-rule="evenodd" d="M28.6018 38.6787C28.798 38.7483 28.9495 38.8746 29.0564 39.0575C28.8589 38.9957 28.7073 38.8694 28.6018 38.6787Z" fill="#EE8A8C"/>
<path opacity="0.02" fill-rule="evenodd" clip-rule="evenodd" d="M52.0136 38.9818C52.0191 39.0975 51.9686 39.1732 51.862 39.2091C51.8565 39.0934 51.907 39.0176 52.0136 38.9818Z" fill="#9C9B9B"/>
<path opacity="0.067" fill-rule="evenodd" clip-rule="evenodd" d="M20.1917 39.0576C20.2982 39.0934 20.3488 39.1692 20.3432 39.2849C20.2367 39.249 20.1862 39.1733 20.1917 39.0576Z" fill="#A2A0A0"/>
<path opacity="0.976" fill-rule="evenodd" clip-rule="evenodd" d="M42.8459 38.6787C42.4398 39.1877 41.9347 39.5412 41.3306 39.7394C41.835 39.3861 42.3402 39.0325 42.8459 38.6787Z" fill="#F18284"/>
<path opacity="0.455" fill-rule="evenodd" clip-rule="evenodd" d="M20.3433 39.2849C20.5471 39.4131 20.6987 39.59 20.7979 39.8152C20.5919 39.685 20.4404 39.5081 20.3433 39.2849Z" fill="#8E8C8C"/>
<path opacity="0.027" fill-rule="evenodd" clip-rule="evenodd" d="M51.7105 39.3606C51.6925 39.5049 51.6167 39.606 51.4832 39.6637C51.5012 39.5194 51.577 39.4184 51.7105 39.3606Z" fill="#9A9898"/>
<path opacity="0.961" fill-rule="evenodd" clip-rule="evenodd" d="M29.0565 39.0576C29.4485 39.2661 29.8273 39.4934 30.193 39.7395C29.8809 39.6664 29.5905 39.5401 29.3216 39.3606C29.2154 39.2739 29.127 39.1729 29.0565 39.0576Z" fill="#EE7F80"/>
<path opacity="0.561" fill-rule="evenodd" clip-rule="evenodd" d="M30.1929 39.7395C30.4049 39.8266 30.6069 39.9276 30.799 40.0425C30.5343 40.0401 30.3322 39.9391 30.1929 39.7395Z" fill="#EE7F80"/>
<path opacity="0.957" fill-rule="evenodd" clip-rule="evenodd" d="M41.3305 39.7395C41.2962 39.812 41.2457 39.8752 41.179 39.9289C40.9622 40.0531 40.7349 40.1415 40.4971 40.1941C40.755 40.0147 41.0328 39.8632 41.3305 39.7395Z" fill="#F1888A"/>
<path opacity="0.039" fill-rule="evenodd" clip-rule="evenodd" d="M20.9493 39.9668C21.1572 40.0985 21.3087 40.2754 21.4039 40.4971C21.1961 40.3654 21.0446 40.1885 20.9493 39.9668Z" fill="#8D8B8B"/>
<path opacity="0.082" fill-rule="evenodd" clip-rule="evenodd" d="M51.4074 39.7395C51.3378 39.9356 51.2115 40.0871 51.0286 40.1941C51.0982 39.9979 51.2245 39.8464 51.4074 39.7395Z" fill="#9F9D9D"/>
<path fill-rule="evenodd" clip-rule="evenodd" d="M30.799 40.0425C30.9932 40.0871 31.17 40.1628 31.3294 40.2698C31.0962 40.2941 30.9195 40.2184 30.799 40.0425Z" fill="#F07D80"/>
<path opacity="0.969" fill-rule="evenodd" clip-rule="evenodd" d="M31.3293 40.2698C31.5669 40.2776 31.7689 40.3534 31.9355 40.4971C31.6846 40.5118 31.4825 40.436 31.3293 40.2698Z" fill="#F07677"/>
<path opacity="0.788" fill-rule="evenodd" clip-rule="evenodd" d="M21.707 40.8002C22.1319 41.0986 22.5108 41.4522 22.8435 41.8609C22.4186 41.5625 22.0398 41.2089 21.707 40.8002Z" fill="#7A7878"/>
<path opacity="0.714" fill-rule="evenodd" clip-rule="evenodd" d="M31.9355 40.4971C32.5593 40.5864 33.1655 40.7127 33.7539 40.8759C33.2442 40.8542 32.7391 40.791 32.2386 40.6865C32.0918 40.6773 31.9908 40.6142 31.9355 40.4971Z" fill="#F0797A"/>
<path opacity="0.714" fill-rule="evenodd" clip-rule="evenodd" d="M40.0425 40.3456C39.7358 40.518 39.4075 40.657 39.0575 40.7623C38.7325 40.8322 38.4042 40.8701 38.0726 40.876C38.7243 40.6998 39.3809 40.523 40.0425 40.3456Z" fill="#EE8285"/>
<path opacity="0.067" fill-rule="evenodd" clip-rule="evenodd" d="M33.7539 40.8759C34.9901 40.9418 36.2277 40.9671 37.4665 40.9517C37.4086 41.0099 37.3329 41.0478 37.2392 41.0654C36.101 41.1205 34.9645 41.0953 33.8297 40.9896C33.7875 40.9606 33.7623 40.9227 33.7539 40.8759Z" fill="#EF8386"/>
<path opacity="0.039" fill-rule="evenodd" clip-rule="evenodd" d="M49.5133 41.7094C49.4775 41.8159 49.4017 41.8664 49.286 41.8609C49.3218 41.7544 49.3976 41.7038 49.5133 41.7094Z" fill="#ACAAAA"/>
<path opacity="0.886" fill-rule="evenodd" clip-rule="evenodd" d="M22.8435 41.8609C23.0397 41.9306 23.1912 42.0569 23.2981 42.2398C23.1019 42.1701 22.9504 42.0438 22.8435 41.8609Z" fill="#7C7B7B"/>
<path opacity="0.055" fill-rule="evenodd" clip-rule="evenodd" d="M49.0587 42.0882C49.0009 42.2217 48.8999 42.2975 48.7556 42.3155C48.8133 42.182 48.9144 42.1063 49.0587 42.0882Z" fill="#9A9898"/>
<path opacity="0.718" fill-rule="evenodd" clip-rule="evenodd" d="M23.2982 42.2398C23.4686 42.2837 23.5948 42.3847 23.677 42.5428C23.5066 42.4989 23.3804 42.3979 23.2982 42.2398Z" fill="#7D7C7C"/>
<path opacity="0.016" fill-rule="evenodd" clip-rule="evenodd" d="M48.6798 42.3913C48.6221 42.5248 48.521 42.6005 48.3768 42.6186C48.4345 42.4851 48.5356 42.4093 48.6798 42.3913Z" fill="#979696"/>
<path opacity="0.51" fill-rule="evenodd" clip-rule="evenodd" d="M23.677 42.5428C23.8474 42.5868 23.9736 42.6878 24.0558 42.8459C23.8854 42.802 23.7592 42.701 23.677 42.5428Z" fill="#878585"/>
<path opacity="0.043" fill-rule="evenodd" clip-rule="evenodd" d="M48.301 42.6944C48.2652 42.8009 48.1894 42.8514 48.0737 42.8459C48.1096 42.7394 48.1853 42.6888 48.301 42.6944Z" fill="#9E9C9C"/>
<path opacity="0.686" fill-rule="evenodd" clip-rule="evenodd" d="M24.0558 42.8459C24.1715 42.8403 24.2473 42.8909 24.2831 42.9974C24.1675 43.0029 24.0917 42.9524 24.0558 42.8459Z" fill="#878585"/>
<path opacity="0.012" fill-rule="evenodd" clip-rule="evenodd" d="M47.998 42.9217C47.8993 43.0976 47.7478 43.1986 47.5434 43.2247C47.6682 43.0864 47.8197 42.9853 47.998 42.9217Z" fill="#959393"/>
<path opacity="0.529" fill-rule="evenodd" clip-rule="evenodd" d="M24.2831 42.9974C24.4274 43.0155 24.5285 43.0912 24.5862 43.2247C24.4419 43.2067 24.3409 43.1309 24.2831 42.9974Z" fill="#807E7E"/>
<path opacity="0.38" fill-rule="evenodd" clip-rule="evenodd" d="M24.5862 43.2247C24.7019 43.2192 24.7776 43.2697 24.8135 43.3762C24.6978 43.3818 24.622 43.3312 24.5862 43.2247Z" fill="#8C8B8B"/>
<path opacity="0.012" fill-rule="evenodd" clip-rule="evenodd" d="M47.4676 43.3005C47.4318 43.407 47.356 43.4575 47.2403 43.452C47.2761 43.3455 47.3519 43.2949 47.4676 43.3005Z" fill="#AEACAC"/>
<path opacity="0.463" fill-rule="evenodd" clip-rule="evenodd" d="M24.8135 43.3763C24.9292 43.3707 25.0049 43.4213 25.0408 43.5278C24.9251 43.5333 24.8493 43.4828 24.8135 43.3763Z" fill="#888787"/>
<path opacity="0.329" fill-rule="evenodd" clip-rule="evenodd" d="M25.0408 43.5278C25.1565 43.5223 25.2322 43.5728 25.2681 43.6793C25.1524 43.6848 25.0766 43.6343 25.0408 43.5278Z" fill="#858383"/>
<path opacity="0.012" fill-rule="evenodd" clip-rule="evenodd" d="M47.013 43.6035C46.9252 43.7361 46.7989 43.8119 46.6342 43.8308C46.722 43.6982 46.8483 43.6225 47.013 43.6035Z" fill="#9C9A9A"/>
<path opacity="0.31" fill-rule="evenodd" clip-rule="evenodd" d="M25.2681 43.6793C25.3838 43.6738 25.4596 43.7243 25.4954 43.8309C25.3797 43.8364 25.304 43.7859 25.2681 43.6793Z" fill="#949292"/>
<path opacity="0.01" fill-rule="evenodd" clip-rule="evenodd" d="M46.6342 43.8309C46.5984 43.9374 46.5226 43.9879 46.4069 43.9824C46.4428 43.8759 46.5185 43.8253 46.6342 43.8309Z" fill="#969494"/>
<path opacity="0.357" fill-rule="evenodd" clip-rule="evenodd" d="M25.6469 43.9066C25.7625 43.9011 25.8383 43.9516 25.8741 44.0581C25.7585 44.0637 25.6827 44.0131 25.6469 43.9066Z" fill="#949393"/>
<path opacity="0.227" fill-rule="evenodd" clip-rule="evenodd" d="M26.0258 44.1339C26.1905 44.1529 26.3168 44.2286 26.4046 44.3612C26.2399 44.3423 26.1136 44.2665 26.0258 44.1339Z" fill="#979595"/>
<path fill-rule="evenodd" clip-rule="evenodd" d="M28.526 44.2097C28.7129 44.229 28.8644 44.3048 28.9806 44.437C28.7937 44.4176 28.6422 44.3419 28.526 44.2097Z" fill="#791013"/>
<path opacity="0.22" fill-rule="evenodd" clip-rule="evenodd" d="M46.1039 44.1339C45.92 44.2898 45.718 44.4287 45.4977 44.5506C45.3822 44.6271 45.2559 44.665 45.1189 44.6643C45.4104 44.4299 45.7387 44.2532 46.1039 44.1339Z" fill="#949292"/>
<path opacity="0.102" fill-rule="evenodd" clip-rule="evenodd" d="M27.0107 44.6643C27.1359 44.6764 27.2369 44.7268 27.3137 44.8158C27.1713 44.8363 27.0703 44.7858 27.0107 44.6643Z" fill="#9E9D9D"/>
<path opacity="0.141" fill-rule="evenodd" clip-rule="evenodd" d="M45.1188 44.6643C45.0119 44.8187 44.8604 44.8945 44.6642 44.8916C44.7916 44.7773 44.9431 44.7015 45.1188 44.6643Z" fill="#969595"/>
<path fill-rule="evenodd" clip-rule="evenodd" d="M27.3138 44.8158C27.533 44.7803 27.6845 44.8561 27.7684 45.0431C27.5927 45.0058 27.4411 44.9301 27.3138 44.8158Z" fill="#585757"/>
<path fill-rule="evenodd" clip-rule="evenodd" d="M30.5718 44.9673C30.7849 44.971 30.9869 45.0215 31.1779 45.1189C31.2284 45.0683 31.2789 45.0179 31.3294 44.9673C31.4518 45.0169 31.5781 45.0548 31.7083 45.081C31.6325 45.1062 31.5567 45.1315 31.481 45.1568C31.6494 45.1996 31.8009 45.2628 31.9356 45.3462C31.4542 45.2837 30.9996 45.1574 30.5718 44.9673Z" fill="#BC181E"/>
<path opacity="0.275" fill-rule="evenodd" clip-rule="evenodd" d="M27.7683 45.0431C27.9239 45.0357 28.0502 45.0862 28.1471 45.1946C27.9916 45.202 27.8653 45.1515 27.7683 45.0431Z" fill="#979595"/>
<path opacity="0.894" fill-rule="evenodd" clip-rule="evenodd" d="M28.1472 45.1946C28.3738 45.1693 28.5505 45.2451 28.6775 45.4219C28.4698 45.4063 28.2931 45.3305 28.1472 45.1946Z" fill="#6A6969"/>
<path opacity="0.145" fill-rule="evenodd" clip-rule="evenodd" d="M44.6642 44.8916C44.2927 45.1255 43.8887 45.3023 43.452 45.422C43.826 45.1874 44.2301 45.0106 44.6642 44.8916Z" fill="#8D8C8C"/>
<path opacity="0.624" fill-rule="evenodd" clip-rule="evenodd" d="M43.452 45.4219C43.355 45.5304 43.2287 45.5809 43.0731 45.5735C43.1591 45.4437 43.2854 45.3931 43.452 45.4219Z" fill="#7F7E7E"/>
<path fill-rule="evenodd" clip-rule="evenodd" d="M32.2386 45.4219C33.8964 45.647 35.5632 45.748 37.2392 45.725C37.3655 45.725 37.4917 45.725 37.618 45.725C35.8103 45.8897 34.0171 45.7887 32.2386 45.4219Z" fill="#851116"/>
<path fill-rule="evenodd" clip-rule="evenodd" d="M39.7394 45.4219C39.0506 45.5815 38.3434 45.6825 37.618 45.725C37.4917 45.725 37.3654 45.725 37.2391 45.725C38.0542 45.5599 38.8877 45.4589 39.7394 45.4219Z" fill="#AF161B"/>
<path opacity="0.204" fill-rule="evenodd" clip-rule="evenodd" d="M43.0732 45.5735C42.9518 45.6927 42.8003 45.7433 42.6186 45.725C42.7485 45.6312 42.9 45.5807 43.0732 45.5735Z" fill="#999898"/>
<path opacity="0.098" fill-rule="evenodd" clip-rule="evenodd" d="M29.0565 45.5735C29.2297 45.5807 29.3812 45.6312 29.5111 45.725C29.3294 45.7433 29.1778 45.6927 29.0565 45.5735Z" fill="#9D9C9C"/>
<path opacity="0.514" fill-rule="evenodd" clip-rule="evenodd" d="M42.6186 45.725C42.5102 45.8036 42.3839 45.8541 42.2397 45.8765C42.3257 45.7467 42.452 45.6962 42.6186 45.725Z" fill="#828080"/>
<path opacity="0.357" fill-rule="evenodd" clip-rule="evenodd" d="M29.511 45.725C30.2323 45.9051 30.9394 46.1071 31.6324 46.3311C30.8909 46.2218 30.1838 46.0197 29.511 45.725Z" fill="#8B8A8A"/>
<path opacity="0.553" fill-rule="evenodd" clip-rule="evenodd" d="M42.1639 45.8765C41.0704 46.2823 39.9339 46.5349 38.7545 46.6342C39.8871 46.4024 41.0236 46.1499 42.1639 45.8765Z" fill="#8C8B8B"/>
<path opacity="0.435" fill-rule="evenodd" clip-rule="evenodd" d="M31.6324 46.3311C32.3546 46.416 33.0618 46.5423 33.7539 46.7099C33.0228 46.664 32.3156 46.5377 31.6324 46.3311Z" fill="#807F7F"/>
<path opacity="0.102" fill-rule="evenodd" clip-rule="evenodd" d="M38.7545 46.6342C38.2428 46.7646 37.7125 46.8151 37.1634 46.7857C37.6799 46.705 38.2103 46.6545 38.7545 46.6342Z" fill="#979595"/>
</svg>
