<svg width="45" height="45" viewBox="0 0 45 45" fill="none" xmlns="http://www.w3.org/2000/svg">
<path d="M41.6251 33.0628L26.253 6.36691C25.8689 5.71287 25.3205 5.17058 24.6622 4.79378C24.0039 4.41697 23.2586 4.21875 22.5001 4.21875C21.7416 4.21875 20.9962 4.41697 20.3379 4.79378C19.6796 5.17058 19.1313 5.71287 18.7471 6.36691L3.37505 33.0628C3.00545 33.6954 2.81067 34.4149 2.81067 35.1476C2.81067 35.8802 3.00545 36.5997 3.37505 37.2323C3.75427 37.8903 4.30172 38.4356 4.96124 38.8121C5.62075 39.1887 6.36858 39.383 7.12798 39.3751H37.8721C38.6309 39.3824 39.378 39.1878 40.0369 38.8112C40.6957 38.4347 41.2426 37.8898 41.6215 37.2323C41.9917 36.6 42.1871 35.8807 42.1877 35.1481C42.1883 34.4154 41.9941 33.6957 41.6251 33.0628ZM39.187 35.8243C39.053 36.0529 38.8606 36.2418 38.6295 36.3715C38.3985 36.5012 38.1371 36.5672 37.8721 36.5626H7.12798C6.86304 36.5672 6.60165 36.5012 6.37059 36.3715C6.13954 36.2418 5.94715 36.0529 5.81314 35.8243C5.69175 35.6188 5.62772 35.3845 5.62772 35.1458C5.62772 34.9071 5.69175 34.6728 5.81314 34.4673L21.1852 7.7714C21.3219 7.5439 21.5152 7.35564 21.7462 7.22494C21.9772 7.09424 22.2381 7.02555 22.5036 7.02555C22.769 7.02555 23.0299 7.09424 23.2609 7.22494C23.4919 7.35564 23.6852 7.5439 23.8219 7.7714L39.194 34.4673C39.3143 34.6734 39.3771 34.9081 39.3759 35.1468C39.3747 35.3855 39.3094 35.6194 39.187 35.8243ZM21.0938 25.3126V18.2814C21.0938 17.9084 21.242 17.5507 21.5057 17.287C21.7694 17.0233 22.1271 16.8751 22.5001 16.8751C22.873 16.8751 23.2307 17.0233 23.4944 17.287C23.7581 17.5507 23.9063 17.9084 23.9063 18.2814V25.3126C23.9063 25.6856 23.7581 26.0433 23.4944 26.307C23.2307 26.5707 22.873 26.7189 22.5001 26.7189C22.1271 26.7189 21.7694 26.5707 21.5057 26.307C21.242 26.0433 21.0938 25.6856 21.0938 25.3126ZM24.6094 31.6407C24.6094 32.0579 24.4857 32.4658 24.2539 32.8126C24.0222 33.1595 23.6927 33.4299 23.3073 33.5895C22.9218 33.7492 22.4977 33.791 22.0885 33.7096C21.6794 33.6282 21.3035 33.4273 21.0085 33.1323C20.7135 32.8373 20.5126 32.4614 20.4312 32.0523C20.3498 31.6431 20.3916 31.219 20.5512 30.8335C20.7109 30.4481 20.9813 30.1186 21.3281 29.8869C21.675 29.6551 22.0829 29.5314 22.5001 29.5314C23.0595 29.5314 23.596 29.7536 23.9916 30.1492C24.3872 30.5448 24.6094 31.0813 24.6094 31.6407Z" fill="black"/>
</svg>
