<svg width="675" height="374" viewBox="0 0 675 374" fill="none" xmlns="http://www.w3.org/2000/svg">
<path d="M18.9 327.72L27.7 300.61H27.9L36.1 327.72H18.9ZM19.5 354.82V352.52H10.9L18 330.52H37.1L44 352.52H35.9V354.82H61.1V352.52H54.1L33.5 287.11H29.6L7.9 352.52H0V354.82H19.5Z" fill="white"/>
<path d="M66.41 354.82V352.52H74.11V288.21H66.41V285.91H70.71C74.41 285.91 78.31 285.71 81.91 285.01V352.52H89.61V354.82H66.41Z" fill="white"/>
<path d="M94.22 354.82V352.52H101.92V288.21H94.22V285.91H98.52C102.22 285.91 106.12 285.71 109.72 285.01V352.52H117.42V354.82H94.22Z" fill="white"/>
<path d="M123.22 354.82V352.52H129.92V317.51H123.22V315.21H126.52C130.22 315.21 134.12 315.11 137.72 314.21V352.52H143.62V354.82H123.22ZM133.73 288.81C136.13 288.81 138.83 291.01 138.83 293.61C138.83 296.71 136.63 298.91 133.73 298.91C130.83 298.91 128.93 296.51 128.93 293.61C128.93 291.01 131.23 288.81 133.73 288.81Z" fill="white"/>
<path d="M173.09 343.22C173.09 347.42 171.69 348.52 170.89 349.32C168.49 351.42 166.39 352.22 163.19 352.22C158.59 352.22 155.49 349.22 155.49 344.32C155.49 335.12 166.59 334.02 173.09 333.92V343.22ZM186.49 347.92C185.99 349.62 184.99 352.42 182.99 352.42C180.89 352.42 180.89 350.82 180.89 347.82V324.01C180.89 320.01 180.89 314.21 167.29 314.21C155.39 314.21 151.29 320.21 151.29 323.81C151.29 326.61 152.79 328.61 155.49 328.61C157.99 328.61 159.59 326.91 159.59 324.41C159.59 321.11 156.59 320.61 156.59 319.81C156.59 316.91 163.69 316.21 165.89 316.21C169.39 316.21 173.09 317.61 173.09 322.31V331.81C157.79 331.81 148.28 337.01 147.98 346.31C147.98 353.71 153.38 356.11 159.68 356.11C164.78 356.11 169.78 354.21 173.18 350.01C173.88 353.71 175.98 356.11 179.68 356.11C184.28 356.11 187.88 352.61 188.18 347.91H186.49V347.92Z" fill="white"/>
<path d="M197.39 317.52H191.89V315.22H193.99C195.89 315.22 197.79 315.22 199.59 315.02C201.49 314.92 203.39 314.62 205.19 314.22V324.82H205.39C208.19 318.52 212.09 314.22 219.39 314.22C222.99 314.22 231.29 315.02 231.29 324.22V352.53H236.69V354.83H218.29V352.53H223.49V325.52C223.49 318.22 221.19 317.12 217.19 317.12C210.39 317.12 205.19 326.42 205.19 333.92V352.52H210.59V354.82H191.89V352.52H197.39V317.52Z" fill="white"/>
<path d="M275.96 342.42C273.66 349.52 269.66 355.72 259.26 356.12C243.76 356.12 239.06 343.22 239.06 336.32C239.06 318.52 253.36 314.22 259.06 314.22C265.56 314.22 274.76 317.22 274.76 324.92C274.76 327.62 273.06 330.22 270.26 330.22C267.56 330.22 265.56 328.42 265.56 325.52C265.56 321.62 268.76 321.12 268.76 320.02C268.76 317.32 262.46 316.22 260.26 316.22C250.66 316.22 248.16 323.22 248.16 336.33C248.16 342.33 249.66 346.93 250.26 348.33C251.76 351.63 254.86 353.73 260.06 354.03C265.86 354.33 271.46 349.63 273.86 342.43H275.96V342.42Z" fill="white"/>
<path d="M290.46 329.12C290.56 326.62 290.86 324.32 291.46 322.52C291.66 321.82 294.36 316.22 300.36 316.22C305.36 316.22 309.56 318.52 309.56 325.72V329.12H290.46ZM316.37 342.42C314.97 349.02 308.27 354.02 302.57 354.02C291.67 354.02 290.37 346.02 290.37 336.12V332.02H318.68C318.58 321.12 310.88 314.22 300.68 314.22C288.78 314.22 280.98 325.02 280.98 336.82C280.98 347.92 290.78 356.12 300.98 356.12C309.78 356.12 316.58 351.72 318.58 342.42H316.37Z" fill="white"/>
<path d="M324.5 354.82V352.52H332.6V290.31H324.5V288.01H373.31L374.11 305.72H372.31C369.21 293.62 367.51 290.32 355.01 290.32H342.31V319.43C351.21 319.33 355.21 319.03 356.21 309.03H358.51V333.64H356.31C355.61 323.44 351.61 321.94 342.31 321.94V352.55H350.91V354.85H324.5V354.82Z" fill="white"/>
<path d="M384.45 323.62H384.65C386.45 319.12 390.45 314.22 395.95 314.22C399.35 314.22 402.05 316.02 402.05 319.82C402.05 322.32 399.45 323.52 397.35 323.52C395.55 323.52 393.45 321.52 393.45 319.52C393.45 318.72 393.85 317.82 393.85 317.42C393.85 316.82 393.25 316.82 392.95 316.82C392.85 316.82 389.45 318.22 387.25 322.72C385.85 325.62 384.75 329.52 384.75 333.52V352.52H392.45V354.82H370.14V352.52H376.94V317.51H370.14V315.21H373.24C376.94 315.21 380.84 315.11 384.44 314.21V323.62H384.45Z" fill="white"/>
<path d="M429.08 343.22C429.08 347.42 427.68 348.52 426.88 349.32C424.48 351.42 422.38 352.22 419.18 352.22C414.58 352.22 411.48 349.22 411.48 344.32C411.48 335.12 422.58 334.02 429.08 333.92V343.22ZM442.48 347.92C441.98 349.62 440.98 352.42 438.98 352.42C436.88 352.42 436.88 350.82 436.88 347.82V324.01C436.88 320.01 436.88 314.21 423.28 314.21C411.38 314.21 407.28 320.21 407.28 323.81C407.28 326.61 408.78 328.61 411.48 328.61C413.98 328.61 415.58 326.91 415.58 324.41C415.58 321.11 412.58 320.61 412.58 319.81C412.58 316.91 419.68 316.21 421.88 316.21C425.38 316.21 429.08 317.61 429.08 322.31V331.81C413.78 331.81 404.27 337.01 403.97 346.31C403.97 353.71 409.37 356.11 415.67 356.11C420.77 356.11 425.77 354.21 429.17 350.01C429.87 353.71 431.97 356.11 435.67 356.11C440.27 356.11 443.87 352.61 444.17 347.91H442.48V347.92Z" fill="white"/>
<path d="M452.62 317.52H447.12V315.22H449.22C451.12 315.22 453.02 315.22 454.82 315.02C456.72 314.92 458.62 314.62 460.42 314.22V324.82H460.62C463.42 318.52 467.32 314.22 474.62 314.22C478.22 314.22 486.52 315.02 486.52 324.22V352.53H491.92V354.83H473.52V352.53H478.72V325.52C478.72 318.22 476.42 317.12 472.42 317.12C465.62 317.12 460.42 326.42 460.42 333.92V352.52H465.82V354.82H447.12V352.52H452.62V317.52Z" fill="white"/>
<path d="M513.11 356.13C523.51 355.73 527.51 349.53 529.81 342.43H527.71C525.31 349.63 519.71 354.33 513.91 354.03C508.71 353.73 505.61 351.63 504.11 348.33C503.51 346.93 502.01 342.33 502.01 336.33C502.01 323.23 504.51 316.22 514.11 316.22C516.31 316.22 522.61 317.32 522.61 320.02C522.61 321.12 519.41 321.62 519.41 325.52C519.41 328.42 521.41 330.22 524.11 330.22C526.91 330.22 528.61 327.62 528.61 324.92C528.61 317.22 519.41 314.22 512.91 314.22C507.21 314.22 492.9 318.52 492.9 336.32C492.9 342.6 496.79 353.84 509.16 355.82L505.66 363.69L507.27 364.14C509.15 363.69 508.35 363.87 509.96 363.69C511.48 363.69 513.81 364.67 513.81 367.18C513.81 370.05 510.76 370.94 508.34 370.94C506.64 370.94 504.76 370.31 503.15 369.87L501.9 372.56C503.96 373.46 507 373.9 509.24 373.9C514.08 373.9 520.08 372.29 520.08 366.38C520.08 361.81 515.6 360.2 513.45 360.2C512.38 360.2 511.12 360.47 510.04 360.74L512.15 356.11C512.47 356.11 512.78 356.13 513.11 356.13Z" fill="white"/>
<path d="M558.73 343.22C558.73 347.42 557.33 348.52 556.53 349.32C554.13 351.42 552.03 352.22 548.83 352.22C544.23 352.22 541.13 349.22 541.13 344.32C541.13 335.12 552.23 334.02 558.73 333.92V343.22ZM572.13 347.92C571.63 349.62 570.63 352.42 568.63 352.42C566.53 352.42 566.53 350.82 566.53 347.82V324.01C566.53 320.01 566.53 314.21 552.93 314.21C541.03 314.21 536.93 320.21 536.93 323.81C536.93 326.61 538.43 328.61 541.13 328.61C543.63 328.61 545.23 326.91 545.23 324.41C545.23 321.11 542.23 320.61 542.23 319.81C542.23 316.91 549.33 316.21 551.53 316.21C555.03 316.21 558.73 317.61 558.73 322.31V331.81C543.43 331.81 533.93 337.01 533.63 346.31C533.63 353.71 539.03 356.11 545.33 356.11C550.43 356.11 555.43 354.21 558.83 350.01C559.53 353.71 561.63 356.11 565.33 356.11C569.93 356.11 573.53 352.61 573.83 347.91H572.13V347.92Z" fill="white"/>
<path d="M576.03 354.82V352.52H582.73V317.51H576.03V315.21H579.33C583.03 315.21 586.93 315.11 590.53 314.21V352.52H596.43V354.82H576.03ZM586.53 288.81C588.93 288.81 591.63 291.01 591.63 293.61C591.63 296.71 589.43 298.91 586.53 298.91C583.63 298.91 581.73 296.51 581.73 293.61C581.73 291.01 584.03 288.81 586.53 288.81Z" fill="white"/>
<path d="M628.17 315.22V326.42H625.97C624.47 320.62 621.07 316.52 615.07 316.22C606.87 316.02 605.67 322.32 605.67 323.52C605.67 326.42 606.47 327.92 621.77 331.02C629.47 332.62 632.17 336.12 632.17 342.42C632.17 351.02 625.67 356.12 617.77 356.12C613.57 356.12 609.17 354.42 606.27 351.22L604.07 354.82H601.87V341.62H604.17C606.07 348.82 610.97 354.12 618.37 354.12C622.87 354.12 628.07 350.72 628.07 345.52C628.07 341.62 622.57 339.82 614.27 337.72C607.67 336.12 601.87 335.22 601.87 326.52C601.87 322.32 604.47 314.22 615.37 314.22C618.47 314.22 621.57 315.42 624.67 317.92L626.47 315.22H628.17Z" fill="white"/>
<path d="M646.2 329.12C646.3 326.62 646.6 324.32 647.2 322.52C647.4 321.82 650.1 316.22 656.1 316.22C661.1 316.22 665.3 318.52 665.3 325.72V329.12H646.2ZM672.11 342.42C670.71 349.02 664.01 354.02 658.31 354.02C647.41 354.02 646.11 346.02 646.11 336.12V332.02H674.41C674.31 321.12 666.61 314.22 656.41 314.22C644.51 314.22 636.7 325.02 636.7 336.82C636.7 347.92 646.5 356.12 656.71 356.12C665.51 356.12 672.31 351.72 674.31 342.42H672.11Z" fill="white"/>
<path d="M423.57 0C411.88 0 400.84 5.95 387.77 19.28C372.91 34.68 360.79 58.54 353.58 86.52H331.32H330.64L330.48 87.18L329.44 91.35L329.17 92.42H330.28H352.08C346.36 113.54 339.3 146.67 336.96 157.68C336.52 159.75 336.22 161.13 336.11 161.65C334.54 168.54 328.01 173.34 323.14 173.34C318.33 173.34 316.19 170.07 316.19 162.74V94.46C316.19 84.96 311.13 76.87 301.57 71.08C293.47 66.18 282.72 63.36 272.06 63.36C256.6 63.36 247.01 68.33 241.68 72.5C234.93 77.79 231.05 84.94 231.05 92.11C231.05 101.65 235.78 107.57 243.38 107.57C250.71 107.57 256.23 102.49 256.23 95.76C256.23 88.52 253.08 86.43 250.55 84.75C248.86 83.63 247.63 82.82 247.63 80.64C247.63 72.13 264.4 69.26 272.05 69.26C289 69.26 292.55 77.01 292.55 83.51V114.7H288.46C278.88 114.7 260.52 115.66 245.22 122.07C229.76 128.55 221.92 138.64 221.92 152.06C221.92 170.06 234.42 180.81 255.36 180.81C273.1 180.81 284.47 176.14 293.12 165.24C295.66 174.47 305.11 180.81 316.6 180.81C323.24 180.81 328.73 178.9 333.28 175C328.33 197.3 324.49 213.44 320.91 224.48C317.88 233.8 313.99 240.7 309.35 245C305.04 249 301.44 249.43 300.1 249.43C298.08 249.43 297.06 248.84 297.06 247.68C297.06 246.86 297.55 246.34 298.48 245.42C299.97 243.96 302.01 241.96 302.01 237C302.01 230.2 296.83 225.45 289.42 225.45C286.21 225.45 283.03 226.85 280.68 229.3C278.19 231.9 276.82 235.47 276.82 239.35C276.82 243.19 278.55 247.16 281.56 250.25C284.76 253.53 288.94 255.33 293.32 255.33C309.52 255.33 320.44 248.82 338.66 211.84C347.02 194.94 354.19 168.64 363.26 135.34C366.97 121.71 370.81 107.63 375.2 92.43H401.91H402.63L402.76 91.72L403.54 87.55L403.73 86.53H402.69H376.46L384.24 57.91C388.84 40.94 402.78 5.9 416.51 5.9C418.7 5.9 419.29 6.16 419.29 7.12C419.29 7.68 418.83 8.27 418.21 9.08C416.98 10.66 415.13 13.05 415.13 17.8C415.13 25.36 421.93 29.87 428.5 29.87C436 29.87 441.87 24.22 441.87 17.01C441.89 7.32 434.01 0 423.57 0ZM292.54 120.6V153.87C292.54 158.44 284.33 172.82 265.26 172.82C250.07 172.82 247.1 163.77 247.1 148.15C247.1 136.11 251.59 128.3 260.82 124.28C269.26 120.61 280.66 120.61 288.98 120.61H292.54V120.6Z" fill="white"/>
</svg>
