<svg width="400" height="424" viewBox="0 0 400 424" fill="none" xmlns="http://www.w3.org/2000/svg">
<g clip-path="url(#clip0_334_922)">
<path fill-rule="evenodd" clip-rule="evenodd" d="M40.4291 117.026C40.0552 117.892 40.9311 115.198 41.184 114.282L42.1694 110.713C52.3416 73.8085 62.5092 36.9043 72.6814 0L400 0.641113L38.2662 294.865L203.572 95.6906L79.3906 96.0428C77.0958 96.0498 74.7989 96.0428 72.5086 96.1963C57.7809 97.4469 45.0206 106.371 40.4289 117.023" fill="white"/>
<path fill-rule="evenodd" clip-rule="evenodd" d="M382.233 201.708C382.604 200.841 372.339 264.403 354.233 330.109L12.6351 332.017L381.565 33.228L216.226 234.283L340.407 233.931C342.702 233.924 344.999 233.931 347.29 233.777C362.018 232.527 377.641 212.363 382.233 201.711" fill="white"/>
<path fill-rule="evenodd" clip-rule="evenodd" d="M58.1299 423.645H0L40.1796 369.08H13.5335L15.4637 353.994H70.8191L30.7377 408.464H60.0713L58.1299 423.645ZM69.091 423.645L78.008 353.994H118.304L116.352 369.263H93.5361L91.9874 381.341H113.498L111.588 396.284H90.0776L88.5707 408.042H111.386L109.39 423.645H69.091ZM121.241 423.645L130.155 353.994H147.452L167.709 389.82C168.089 390.552 168.684 392.012 169.507 394.22C170.31 396.43 171.174 399.044 172.102 402.096C172.112 399.207 172.183 396.641 172.306 394.383C172.424 392.143 172.604 390.147 172.83 388.389L177.232 353.994H194.433L185.52 423.645H168.315L148.078 387.676C147.666 386.944 147.055 385.485 146.235 383.277C145.429 381.066 144.578 378.483 143.673 375.496C143.655 378.42 143.583 381.002 143.462 383.26C143.343 385.501 143.164 387.498 142.937 389.254L138.534 423.645H121.241ZM200.072 423.645L208.985 353.994H227.096L218.178 423.645H200.072ZM242.114 423.645L248.922 370.463H234.186L236.294 353.994H283.693L281.585 370.463H266.847L260.041 423.645H242.114ZM283.529 423.645L292.443 353.994H310.371L306.905 381.066H330.796L334.262 353.994H352.23L343.313 423.645H325.345L328.976 395.292H305.085L301.454 423.645H283.529Z" fill="white"/>
</g>
<defs>
<clipPath id="clip0_334_922">
<rect width="400" height="423.645" fill="white"/>
</clipPath>
</defs>
</svg>
